<?xml version="1.0" standalone="no"?>
<!DOCTYPE svg PUBLIC "-//W3C//DTD SVG 20010904//EN"
 "http://www.w3.org/TR/2001/REC-SVG-20010904/DTD/svg10.dtd">
<svg version="1.0" xmlns="http://www.w3.org/2000/svg"
 width="640.000000pt" height="640.000000pt" viewBox="0 0 640.000000 640.000000"
 preserveAspectRatio="xMidYMid meet">

<g transform="translate(0.000000,640.000000) scale(0.100000,-0.100000)"
fill="#000000" stroke="none">
<path d="M1 6358 c1 -24 4 -33 6 -20 3 13 15 27 29 32 33 13 30 30 -6 30 -29
0 -30 -2 -29 -42z"/>
<path d="M101 6386 c-6 -7 -9 -20 -5 -29 3 -8 1 -18 -5 -22 -6 -3 -11 1 -11
10 0 15 -1 15 -16 1 -8 -9 -20 -16 -26 -16 -6 0 -9 -3 -5 -6 3 -3 -3 -14 -14
-25 -10 -10 -19 -25 -18 -31 0 -10 2 -10 6 0 2 6 11 12 19 12 8 0 14 5 14 10
0 6 6 10 14 10 8 0 17 6 19 13 4 9 6 9 6 0 1 -10 7 -10 26 -1 14 6 24 17 21
24 -2 6 0 16 6 22 12 12 4 42 -10 42 -5 0 -15 -6 -21 -14z"/>
<path d="M310 6391 c0 -6 4 -13 10 -16 6 -3 7 1 4 9 -7 18 -14 21 -14 7z"/>
<path d="M348 6393 c6 -2 18 -2 25 0 6 3 1 5 -13 5 -14 0 -19 -2 -12 -5z"/>
<path d="M540 6391 c0 -6 5 -13 10 -16 6 -3 10 1 10 9 0 9 -4 16 -10 16 -5 0
-10 -4 -10 -9z"/>
<path d="M1797 6363 c1 -21 2 -54 3 -73 0 -27 3 -31 10 -18 6 9 12 33 14 55 2
21 7 47 11 58 5 16 5 17 -4 5 -7 -10 -11 -11 -11 -2 0 6 -6 12 -12 12 -9 0
-12 -13 -11 -37z"/>
<path d="M2036 6385 c-3 -9 -6 -31 -5 -48 1 -28 2 -26 10 12 9 46 6 65 -5 36z"/>
<path d="M2123 6340 c0 -36 2 -50 4 -32 2 17 2 47 0 65 -2 17 -4 3 -4 -33z"/>
<path d="M2158 6363 c6 -65 10 -70 11 -15 0 28 -3 52 -7 52 -4 0 -6 -17 -4
-37z"/>
<path d="M2470 6394 c-2 -39 -12 -151 -15 -161 -3 -7 0 -13 5 -13 18 0 31 163
14 179 -2 2 -4 0 -4 -5z"/>
<path d="M2831 6378 c0 -13 -7 -70 -15 -128 -9 -58 -17 -120 -19 -138 -3 -22
-20 -51 -58 -93 -30 -33 -56 -66 -58 -72 -2 -7 -17 -41 -34 -77 -16 -36 -30
-72 -31 -80 -1 -8 -10 -16 -21 -18 l-20 -4 20 16 c20 15 20 15 -2 16 -13 0
-23 -4 -23 -10 0 -5 -14 -22 -30 -37 -24 -21 -40 -27 -84 -27 -30 -1 -50 2
-44 5 5 3 -14 9 -44 13 -29 4 -69 9 -88 12 -26 4 -31 3 -20 -5 13 -9 13 -11
-2 -11 -10 0 -18 7 -18 15 0 9 -10 15 -26 15 -14 0 -23 -4 -20 -9 6 -9 -83 5
-93 15 -3 3 12 3 34 0 32 -4 29 -3 -12 8 -29 8 -78 17 -110 20 -87 10 -154 24
-215 42 -13 4 -16 1 -12 -10 3 -9 1 -16 -5 -16 -6 0 -11 9 -11 20 0 11 5 20
11 20 6 0 8 7 5 15 -3 9 -3 56 1 105 4 66 10 90 19 90 18 0 19 91 2 109 -8 9
-8 11 -2 8 15 -9 24 15 23 56 l-1 32 -13 -35 c-10 -26 -14 -30 -15 -15 -2 11
-7 -5 -12 -35 -13 -81 -16 -106 -18 -199 -2 -46 -8 -112 -15 -147 -11 -61 -11
-64 9 -77 17 -12 52 -26 76 -32 6 -2 95 -14 138 -20 20 -2 30 0 26 6 -4 7 17
10 57 8 100 -3 108 -6 103 -39 -3 -16 -1 -31 4 -34 5 -3 10 6 10 20 0 13 2 27
5 31 9 8 59 -6 53 -15 -2 -4 12 -6 32 -4 l37 3 -28 -23 -27 -24 36 -16 36 -17
-5 35 c-4 20 -2 32 4 29 19 -13 9 -62 -16 -79 -14 -9 -25 -23 -25 -31 0 -9 -6
-12 -15 -9 -8 4 -15 2 -15 -3 0 -12 -60 -47 -67 -39 -4 3 -1 6 7 6 10 0 10 3
0 15 -7 9 -10 19 -6 22 4 4 11 1 15 -6 7 -11 13 -9 30 8 11 11 21 27 21 34 -1
7 -6 5 -14 -5 -15 -21 -33 -23 -38 -6 -3 7 -13 5 -31 -7 -31 -20 -35 -41 -9
-48 9 -3 -1 -4 -23 -3 -37 1 -40 -1 -43 -29 -4 -30 -4 -30 17 -11 20 18 21 18
21 1 0 -17 1 -17 19 -1 18 16 18 16 14 -9 -3 -13 -9 -22 -14 -19 -5 3 -14 2
-20 -2 -8 -4 -7 -9 2 -15 11 -7 10 -9 -3 -9 -24 0 -23 -16 2 -23 28 -7 25 -27
-5 -27 -16 0 -25 6 -25 15 0 8 -9 15 -19 15 -11 0 -23 5 -26 10 -3 6 -14 10
-23 10 -16 -1 -16 -2 0 -14 17 -12 16 -14 -7 -32 -14 -10 -25 -24 -25 -30 0
-6 -9 -19 -21 -29 l-20 -19 22 -17 c15 -11 22 -26 21 -49 -1 -40 -11 -47 -55
-42 -31 3 -33 6 -30 35 l4 32 -19 -35 c-16 -31 -16 -36 -2 -47 11 -9 17 -9 23
0 5 7 6 4 2 -8 -4 -11 -9 -38 -11 -60 l-4 -40 12 33 c6 17 15 32 19 32 5 0 9
7 9 15 0 8 5 15 10 15 6 0 10 -4 10 -10 0 -17 18 -11 23 8 3 9 5 2 6 -16 1
-19 5 -31 11 -27 5 3 8 26 5 50 -2 25 0 45 5 45 15 0 49 41 44 54 -3 8 6 12
23 11 16 0 28 -5 27 -12 -1 -7 -2 -22 -2 -32 -1 -11 -9 -27 -18 -36 -11 -10
-14 -25 -10 -43 4 -21 4 -23 -3 -7 -5 11 -12 28 -15 38 -9 29 -24 19 -28 -19
-3 -23 1 -42 10 -50 12 -12 11 -21 -8 -59 -13 -27 -20 -55 -16 -68 3 -12 -2
-43 -10 -67 -9 -25 -17 -64 -19 -87 -4 -49 -11 -63 -29 -63 -17 0 -16 -51 1
-72 10 -11 8 -18 -7 -31 -11 -9 -24 -17 -29 -17 -9 0 -31 -53 -31 -76 0 -8 9
-14 20 -14 15 0 20 -6 19 -27 l-1 -28 -9 25 c-7 20 -8 15 -5 -21 3 -38 -1 -50
-21 -69 -17 -16 -21 -26 -13 -34 15 -15 12 -36 -5 -36 -8 0 -15 -4 -15 -10 0
-5 7 -10 15 -10 8 0 15 -4 15 -10 0 -5 -8 -10 -17 -10 -14 0 -15 -2 -4 -9 9
-6 10 -11 2 -15 -6 -4 -16 -4 -22 0 -7 4 -9 0 -5 -14 5 -16 -1 -27 -28 -48
-45 -36 -101 -111 -110 -146 -3 -15 -13 -33 -21 -41 -12 -12 -12 -17 -1 -26
16 -13 36 4 36 32 0 15 32 68 88 147 2 2 7 -2 12 -10 7 -11 10 -8 10 14 0 16
3 26 7 22 4 -4 7 -26 8 -50 0 -33 -3 -42 -14 -38 -10 4 -13 -2 -9 -27 6 -39
-6 -48 -25 -20 -18 24 -33 9 -18 -19 10 -19 -4 -56 -18 -48 -4 3 -7 -21 -6
-52 1 -61 -23 -182 -36 -182 -16 0 -31 86 -26 148 4 48 2 61 -7 52 -20 -20
-10 -195 14 -240 11 -20 4 -31 -16 -23 -8 3 -11 10 -7 17 3 6 3 8 -2 4 -4 -4
-13 -4 -19 1 -7 6 -16 3 -25 -6 -11 -13 -10 -14 9 -11 13 2 25 -3 27 -9 3 -9
-8 -13 -35 -13 -40 0 -44 -4 -57 -58 -6 -24 -15 -26 -29 -7 -9 12 -19 16 -32
11 -10 -4 -15 -4 -12 0 4 4 3 15 -3 26 -10 18 -12 18 -29 3 -16 -15 -18 -15
-24 2 -6 14 -9 15 -15 4 -6 -10 -19 -12 -45 -7 -23 4 -36 3 -36 -4 0 -5 -11
-10 -24 -10 -36 0 -56 -10 -56 -29 -1 -14 -2 -14 -15 2 -11 16 -22 18 -69 12
-36 -5 -60 -13 -66 -24 -5 -9 -10 -11 -10 -5 0 19 -30 25 -58 11 -17 -8 -43
-11 -67 -7 -22 3 -52 3 -65 -1 -14 -4 -18 -8 -10 -8 13 -1 13 -2 0 -11 -8 -5
-23 -7 -32 -4 -12 3 -18 0 -18 -10 0 -9 -4 -16 -10 -16 -5 0 -10 7 -10 16 0 8
-4 12 -10 9 -10 -6 -25 21 -34 67 -6 25 -8 26 -36 16 -23 -8 -30 -16 -30 -36
0 -15 -4 -33 -8 -39 -11 -18 -127 -54 -147 -47 -9 4 -20 2 -24 -4 -6 -9 -100
-24 -171 -26 -14 0 -27 -4 -30 -8 -3 -4 -69 -9 -147 -12 -78 -3 -158 -8 -177
-12 l-36 -6 1 -353 0 -354 22 -4 22 -4 -22 -2 c-21 -1 -23 -6 -23 -66 0 -60 2
-65 21 -65 18 0 19 2 9 15 -9 10 -9 15 -1 15 6 0 11 -4 11 -10 0 -5 9 -10 20
-10 11 0 20 5 20 10 0 6 10 8 23 5 25 -6 41 2 50 25 4 10 6 8 6 -7 1 -26 46
-77 60 -69 5 3 20 1 33 -4 17 -8 3 -9 -56 -6 -51 3 -82 9 -87 18 -7 10 -9 10
-9 1 0 -7 -10 -13 -22 -13 -17 0 -19 3 -10 9 19 12 -6 21 -41 14 l-27 -5 0
-514 1 -514 39 25 c22 14 40 21 40 15 0 -6 9 -5 25 2 13 6 22 15 19 19 -6 10
21 25 65 34 23 5 31 4 27 -4 -16 -25 46 -10 75 19 25 23 35 27 50 20 10 -6 16
-16 13 -24 -3 -7 3 -19 12 -27 12 -9 15 -10 10 -2 -5 9 3 17 21 24 51 21 95
44 100 53 4 5 -1 7 -10 3 -10 -4 -16 -2 -14 5 3 15 76 42 186 69 69 18 85 19
92 8 8 -13 13 -5 10 14 -1 10 47 9 85 -2 23 -7 31 -5 31 5 0 9 -8 12 -24 8
-12 -4 -23 -2 -23 4 0 12 64 23 68 11 5 -12 39 -11 47 1 4 7 13 7 26 0 13 -7
19 -7 19 0 0 5 9 10 20 10 11 0 20 -6 20 -12 0 -9 2 -10 8 -2 11 17 81 23 75
7 -4 -9 0 -11 11 -7 25 10 19 -4 -16 -36 -18 -16 -42 -29 -53 -29 -18 0 -18 1
3 9 12 5 22 16 22 25 0 19 -29 20 -36 0 -4 -8 -10 -13 -14 -10 -11 7 -51 -35
-44 -47 3 -4 -6 -3 -20 3 -14 7 -23 16 -20 20 10 17 -8 9 -38 -16 -16 -14 -41
-25 -56 -25 -25 0 -25 -1 -6 -15 18 -14 18 -14 -9 -15 -15 0 -38 -9 -50 -20
-12 -12 -23 -16 -25 -10 -6 18 -22 11 -22 -10 0 -23 -13 -24 -125 -11 -38 5
-74 5 -79 0 -13 -12 40 -22 85 -16 21 3 41 1 44 -3 6 -10 -31 -24 -44 -16 -18
11 -145 9 -149 -3 -2 -6 -12 -11 -23 -11 -15 0 -19 -7 -19 -35 0 -25 -4 -33
-14 -29 -8 3 -17 1 -21 -5 -3 -6 -16 -11 -28 -11 -18 0 -19 -2 -7 -10 13 -8
12 -10 -3 -10 -10 0 -41 -17 -70 -39 -46 -34 -54 -36 -66 -23 -11 11 -11 14
-1 10 11 -3 70 45 70 58 0 10 -24 2 -51 -17 -24 -17 -33 -18 -44 -9 -11 9 -15
9 -15 1 0 -6 5 -11 10 -11 21 0 9 -20 -16 -26 -20 -5 -23 -9 -12 -16 9 -7 2
-8 -22 -4 -20 3 -29 2 -22 -2 9 -6 1 -14 -28 -27 -49 -22 -56 -18 -27 18 55
67 89 118 83 124 -4 4 -11 2 -15 -5 -4 -7 -16 -10 -27 -6 -14 4 -16 3 -5 -4
15 -11 6 -36 -10 -27 -5 3 -6 -1 -3 -10 5 -11 2 -14 -10 -9 -9 3 -16 1 -16 -5
0 -6 -10 -11 -22 -12 -22 0 -22 -1 -3 -9 18 -8 17 -9 -7 -9 l-28 -1 0 -755 0
-755 833 0 c459 0 836 3 840 6 3 4 -1 17 -9 29 -19 29 -27 72 -15 80 9 5 24
93 25 140 0 11 -6 52 -13 92 -21 121 -2 155 76 134 29 -8 65 -7 138 4 133 20
155 25 155 36 0 5 6 9 13 9 19 0 125 58 177 98 53 39 105 88 139 128 14 15 26
23 28 17 5 -14 83 64 83 83 0 23 63 46 94 34 14 -5 44 -7 67 -4 l42 5 -6 -35
c-3 -20 -2 -36 4 -36 5 0 9 16 9 35 0 31 3 35 38 44 20 6 46 11 58 11 11 0 25
5 30 10 6 6 54 13 107 17 53 3 97 8 97 9 0 11 -44 52 -52 48 -4 -3 -8 2 -8 10
0 8 -9 21 -19 28 -11 8 -23 27 -27 42 -3 15 -22 48 -40 72 -19 24 -33 47 -32
52 5 18 -15 49 -42 64 -27 16 -29 20 -26 65 3 35 9 49 21 51 13 3 14 6 4 18
-10 12 -8 20 14 41 29 30 59 33 293 34 116 0 168 -6 189 -21 6 -4 21 -10 35
-13 21 -5 26 -2 27 14 2 25 -20 34 -111 49 -37 6 -78 17 -90 24 -11 8 -39 17
-61 21 -56 10 -92 34 -99 65 -3 15 -13 30 -24 32 -14 4 -19 15 -20 44 -1 36 2
40 39 58 45 21 62 15 32 -11 -19 -17 -38 -53 -28 -53 3 0 19 15 35 33 22 24
29 28 30 15 0 -20 8 -22 43 -9 20 8 27 6 31 -5 8 -22 7 -26 -4 -19 -5 3 -10
-3 -10 -14 0 -27 14 -27 33 2 l15 22 10 -25 c9 -24 9 -24 16 -4 6 21 28 27 56
17 26 -9 114 -9 128 1 11 8 74 3 142 -11 14 -2 36 -6 50 -7 15 -2 30 -13 37
-27 11 -21 18 -19 14 3 -1 11 17 10 23 0 5 -9 107 -5 136 4 13 4 13 6 0 14 -8
6 -26 10 -38 10 -13 0 -38 6 -55 14 -50 22 -71 29 -79 28 -5 -1 -8 3 -8 8 0 6
-20 10 -45 10 -31 0 -47 5 -51 14 -4 12 -18 14 -57 9 -29 -3 -57 -10 -64 -15
-8 -7 -10 -3 -6 14 4 18 3 20 -6 8 -10 -14 -12 -13 -15 9 -3 21 -17 23 -31 5
-8 -10 -15 -14 -15 -8 0 12 -36 27 -57 25 -7 -1 -13 7 -13 19 0 11 -4 20 -10
20 -5 0 -10 -6 -10 -14 0 -8 -8 -13 -17 -11 -10 1 -24 -2 -30 -8 -10 -7 -13
-4 -13 11 0 20 -14 35 -35 38 -5 0 -18 2 -27 2 -11 1 -15 7 -12 17 4 10 0 15
-15 15 -12 0 -21 4 -21 10 0 6 -44 8 -120 4 -115 -5 -120 -5 -120 14 0 13 -10
24 -31 31 -42 14 -49 14 -49 -4 0 -12 -5 -12 -32 3 -26 15 -34 26 -36 53 -5
61 -12 85 -22 69 -7 -12 -12 -12 -22 -2 -6 6 -25 12 -40 12 -15 0 -28 5 -28
11 0 6 -8 8 -19 4 -14 -4 -21 0 -26 14 -3 12 -12 18 -20 15 -7 -3 -24 0 -37 7
-13 7 -29 12 -35 11 -7 -2 -13 6 -13 17 0 11 -6 26 -12 33 -23 25 -38 57 -38
82 0 14 -5 28 -10 31 -16 10 8 35 34 35 47 1 185 18 244 31 70 15 82 9 82 -41
0 -57 72 -147 130 -165 14 -4 31 -12 39 -19 7 -6 19 -11 25 -11 6 -1 41 -5 77
-9 56 -7 67 -12 75 -31 9 -23 11 -23 46 -11 21 8 46 23 55 34 10 12 27 22 38
24 31 5 49 38 21 38 -42 0 -145 91 -176 154 -17 34 -53 86 -60 86 -5 0 -14 16
-22 36 -11 32 -14 33 -25 18 -12 -16 -13 -16 -13 -1 0 18 59 107 72 107 4 0 8
9 8 20 0 11 5 20 10 20 6 0 10 7 10 15 0 8 5 15 11 15 5 0 7 -6 3 -12 -4 -8
-3 -10 2 -5 5 5 9 12 9 15 0 4 10 22 23 40 13 17 20 32 15 32 -4 0 -3 4 3 8
21 14 85 122 109 183 32 81 49 99 94 98 57 0 103 -21 123 -55 10 -16 29 -73
42 -125 35 -131 111 -328 140 -358 13 -14 43 -55 66 -91 34 -53 41 -72 37
-100 -4 -34 -3 -36 47 -57 143 -61 239 -77 446 -77 148 0 187 4 255 22 265 72
455 264 554 560 27 79 38 152 23 152 -6 0 -13 -14 -16 -30 -3 -17 -9 -43 -12
-60 -3 -16 -10 -33 -16 -37 -7 -4 -9 0 -5 10 7 17 21 103 32 189 4 33 15 57
36 79 16 17 27 34 25 37 -9 8 -60 -59 -73 -95 -7 -19 -13 -59 -14 -89 -1 -30
-8 -62 -15 -72 -12 -15 -13 -11 -10 31 4 41 2 47 -14 47 -25 0 -28 -7 -35 -70
-10 -83 -50 -198 -101 -284 -124 -212 -331 -328 -584 -328 -147 0 -313 50
-412 125 -26 21 -37 24 -46 15 -12 -12 -16 -2 -13 27 0 6 -19 35 -44 65 -119
144 -180 379 -141 543 19 82 52 150 68 141 7 -5 9 -2 5 9 -3 9 -2 19 3 22 6 4
10 0 10 -7 1 -8 7 -5 17 7 12 16 14 16 10 3 -3 -10 -2 -20 2 -23 5 -3 7 -14 4
-25 -4 -13 9 -36 38 -72 24 -29 47 -54 52 -56 4 -2 7 -10 7 -18 0 -9 5 -12 11
-9 6 4 20 -2 32 -13 26 -23 65 -34 73 -20 3 5 15 8 25 5 10 -3 19 -1 21 5 2 5
68 11 152 12 114 2 151 6 160 17 6 8 24 13 43 11 22 -2 38 3 53 18 16 16 25
19 33 11 16 -16 38 -14 52 5 10 15 16 15 74 0 34 -9 74 -16 87 -16 21 0 29 -9
25 -32 0 -4 6 -5 14 -2 8 4 15 2 15 -3 0 -14 188 85 199 105 14 24 44 4 52
-34 4 -19 7 -22 8 -9 1 34 -11 65 -26 65 -8 0 -13 6 -10 13 2 6 13 11 23 9 45
-8 59 -6 57 6 -2 6 6 12 17 12 11 0 20 5 20 11 0 5 5 7 10 4 6 -3 10 -1 10 4
0 6 7 11 15 11 8 0 15 -4 15 -10 0 -5 9 -10 19 -10 15 0 18 5 14 21 -4 12 0
25 8 30 12 8 12 11 -1 19 -8 5 -24 9 -35 9 -17 -1 -17 -2 -2 -6 26 -7 10 -23
-23 -23 -20 0 -31 -6 -35 -20 -7 -23 -25 -26 -43 -8 -10 10 -15 10 -22 -1 -10
-17 -60 -27 -60 -12 0 5 -12 17 -27 26 -16 10 -22 12 -15 4 6 -7 12 -20 12
-29 0 -9 -6 -17 -12 -18 -7 -1 -46 -9 -85 -18 -52 -13 -74 -23 -79 -36 -8 -25
-61 -51 -89 -44 -41 10 -74 56 -41 56 8 0 13 8 12 18 -1 12 6 17 22 16 12 0
22 5 22 12 0 12 28 29 44 25 5 -1 1 9 -8 24 -9 14 -12 25 -7 25 19 0 20 44 1
57 -11 8 -20 21 -20 30 0 13 3 13 15 3 8 -7 15 -10 15 -6 0 3 16 -1 36 -9 40
-17 84 -20 84 -6 0 5 -22 18 -48 29 -104 45 -94 87 11 45 37 -14 70 -24 73
-20 38 37 -188 98 -433 117 -166 13 -193 18 -193 35 0 7 -13 22 -30 32 l-30
19 53 17 c28 9 104 22 167 27 63 6 119 15 125 19 5 5 23 11 40 15 16 4 33 12
36 18 5 8 23 8 61 -1 93 -21 103 -24 109 -33 3 -4 20 -12 37 -17 25 -8 34 -6
41 6 6 11 18 14 40 11 17 -2 31 -1 31 3 0 15 -75 69 -96 69 -12 0 -34 11 -50
25 -41 36 -48 41 -70 52 -22 11 -179 12 -190 1 -4 -4 -12 -1 -18 6 -13 17 -53
22 -78 11 -10 -4 -25 -4 -34 -1 -8 3 -13 2 -10 -2 2 -4 -19 -9 -47 -10 -94 -3
-191 -14 -252 -28 -72 -17 -78 -17 -70 -4 7 12 7 12 -75 0 -102 -14 -148 -31
-143 -50 2 -9 -3 -22 -11 -29 -9 -8 -16 -9 -16 -3 0 6 6 12 13 15 6 2 9 8 5
12 -11 12 -27 -4 -57 -57 -47 -82 -19 -116 98 -119 l71 -2 -40 -38 c-22 -21
-40 -42 -40 -47 0 -5 -12 -22 -27 -37 -23 -23 -24 -27 -8 -22 34 12 -56 -63
-110 -90 -27 -14 -65 -39 -83 -54 -18 -16 -36 -29 -40 -29 -13 0 -175 30 -177
32 -2 2 -6 35 -9 73 -4 39 -18 105 -31 147 -14 42 -27 103 -30 134 -7 68 -45
123 -102 146 -73 29 -138 50 -188 60 -27 6 -68 19 -90 29 -106 48 -139 60
-188 70 -28 7 -54 15 -57 18 -9 13 -119 33 -142 26 -18 -5 -20 -4 -8 4 10 7
11 11 3 11 -22 0 -14 31 18 71 17 21 28 43 24 48 -3 6 13 20 37 32 38 20 40
23 24 35 -22 15 -11 38 15 31 15 -4 17 0 12 24 -3 18 -1 29 6 29 6 0 11 -4 11
-10 0 -20 30 -9 47 18 10 15 23 31 30 35 8 5 11 12 8 17 -8 12 23 70 36 70 7
0 9 10 4 27 -5 21 -1 31 17 45 13 10 18 18 12 18 -12 0 -12 88 -1 120 19 52
29 96 29 126 0 19 4 37 9 40 5 3 7 10 4 15 -7 10 25 69 36 69 4 0 9 8 13 18 7
21 26 50 49 74 10 10 15 23 12 28 -4 6 -2 10 4 10 6 0 26 14 46 31 25 22 42
30 60 27 15 -3 22 -1 18 5 -4 6 4 8 21 5 14 -3 26 -2 26 2 0 4 28 3 62 -3 45
-6 68 -6 81 3 13 7 23 8 29 2 6 -6 19 -5 36 4 14 7 29 10 32 6 3 -4 23 -8 45
-8 22 -1 48 -5 57 -9 10 -4 24 1 37 14 25 25 31 26 31 6 0 -18 4 -18 53 -4 21
6 37 16 37 25 0 10 7 13 24 8 25 -6 56 17 56 42 0 19 20 18 36 -3 13 -17 16
-15 44 17 31 35 38 35 19 -2 -16 -30 -2 -34 21 -6 24 31 71 40 91 19 12 -14
14 -13 17 2 2 9 10 17 18 17 7 0 21 12 30 26 12 17 19 21 24 13 9 -13 -18 -49
-37 -49 -7 0 -13 -7 -13 -15 0 -8 -18 -25 -40 -37 -54 -31 -52 -56 2 -27 17 9
24 8 32 -3 17 -23 157 -53 167 -36 6 10 17 10 53 0 25 -6 52 -9 61 -6 8 3 15
1 15 -5 0 -6 16 -11 35 -11 37 0 85 -18 85 -32 0 -5 9 -7 19 -3 13 4 25 -2 39
-20 11 -14 30 -25 42 -25 15 0 20 -5 17 -14 -4 -10 4 -17 24 -21 16 -4 29 -13
29 -20 0 -7 14 -16 31 -20 19 -4 34 -16 39 -31 6 -14 16 -27 25 -30 8 -3 12
-10 9 -15 -3 -5 2 -12 11 -15 9 -4 14 -12 11 -19 -2 -7 4 -22 15 -34 11 -12
17 -25 14 -30 -3 -5 0 -13 6 -17 6 -4 9 -19 5 -35 -4 -21 2 -44 23 -82 20 -37
26 -58 20 -73 -5 -15 -2 -26 12 -38 15 -12 17 -21 10 -34 -10 -18 2 -29 89
-81 22 -13 28 -21 18 -21 -22 0 -13 -27 16 -54 12 -10 20 -23 18 -28 -2 -6 6
-17 18 -25 23 -16 27 -38 5 -30 -8 4 -17 2 -20 -3 -4 -6 1 -10 9 -10 12 0 16
-10 16 -35 0 -29 4 -35 21 -35 16 0 20 -5 16 -20 -3 -12 3 -24 17 -34 43 -30
72 -62 93 -106 12 -25 36 -61 52 -79 17 -18 30 -36 29 -40 -1 -3 4 -19 11 -36
6 -16 14 -36 16 -42 2 -7 9 -13 15 -13 5 0 10 -6 10 -13 0 -7 11 -29 25 -49
14 -20 21 -39 16 -43 -9 -5 13 -60 28 -70 5 -2 9 -34 9 -69 0 -57 -3 -68 -26
-91 -14 -14 -39 -34 -54 -43 -25 -15 -37 -32 -22 -32 12 0 64 34 64 42 0 4 5
8 12 8 6 0 -1 -13 -17 -30 -16 -16 -34 -30 -40 -30 -6 0 -12 -26 -13 -62 l-3
-63 36 35 c19 19 35 29 35 23 0 -7 -4 -15 -10 -18 -5 -3 -10 -17 -10 -30 0
-13 -4 -27 -10 -30 -5 -3 -10 -12 -10 -18 0 -7 7 -4 14 6 7 9 21 17 31 17 13
0 15 -3 7 -12 -5 -7 -12 -40 -14 -74 -3 -34 -8 -66 -12 -72 -4 -7 -9 -30 -12
-52 -5 -43 -33 -97 -70 -137 -13 -14 -20 -31 -17 -38 2 -8 -10 -46 -28 -85
-17 -39 -30 -72 -27 -75 3 -3 20 24 39 60 18 36 38 65 43 65 4 0 4 -6 -2 -12
-6 -7 -10 -17 -10 -21 0 -4 -4 -20 -10 -35 -5 -15 -16 -47 -23 -72 -7 -25 -15
-49 -19 -55 -3 -5 -19 -50 -35 -99 -21 -66 -31 -84 -36 -70 -6 14 -8 11 -8
-14 -1 -44 -39 -193 -54 -211 -9 -12 -9 -13 1 -7 7 4 12 1 12 -8 0 -9 -6 -15
-12 -13 -8 1 -14 -10 -15 -28 -1 -20 0 -23 4 -7 2 12 8 20 12 17 5 -2 4 -25
-2 -50 -8 -36 -14 -44 -27 -40 -12 4 -19 -1 -23 -14 -3 -15 -1 -18 12 -14 9 2
3 -8 -14 -22 -16 -15 -24 -24 -17 -21 7 5 12 1 12 -9 0 -9 -4 -13 -10 -10 -5
3 -10 -4 -10 -15 0 -12 -8 -34 -18 -48 -10 -15 -21 -34 -24 -42 -23 -64 -300
-371 -403 -446 -21 -16 -47 -36 -56 -44 -9 -8 -40 -31 -69 -50 -28 -19 -57
-40 -63 -46 -7 -5 -26 -17 -44 -24 -17 -8 -29 -18 -27 -22 3 -5 10 -6 15 -3
12 8 11 -1 -5 -55 -7 -25 -11 -51 -9 -57 5 -14 -4 -24 -65 -72 -39 -31 -42
-35 -27 -51 19 -21 10 -30 -33 -30 -24 0 -33 -4 -29 -13 3 -9 -8 -18 -29 -26
-19 -7 -32 -16 -29 -21 3 -5 16 -4 30 2 14 6 28 8 33 4 9 -10 -94 -106 -113
-106 -9 0 -12 -6 -8 -17 5 -12 3 -14 -7 -8 -8 5 -11 3 -8 -6 5 -14 -20 -68
-54 -119 -10 -14 -44 -49 -77 -77 -57 -51 -84 -59 -94 -30 -2 7 -3 4 -1 -6 2
-15 -2 -18 -18 -14 -11 3 -27 -1 -35 -9 -13 -12 -12 -14 1 -14 9 0 16 5 16 11
0 6 5 7 13 2 6 -4 21 -6 31 -4 15 2 13 -3 -11 -23 -37 -31 -67 -32 -152 -6
-36 11 -66 18 -66 17 -1 -1 7 -10 17 -19 10 -10 18 -14 18 -9 0 5 17 3 38 -5
20 -7 45 -13 54 -14 31 0 27 -15 -14 -66 l-41 -49 54 52 c53 51 56 53 112 53
36 0 57 -4 57 -11 0 -27 -46 -137 -70 -169 -39 -51 -43 -61 -26 -54 26 10 31
-35 7 -67 l-22 -29 1074 0 1074 0 -5 28 c-2 15 -10 34 -16 42 -7 8 -13 29 -15
45 -2 17 -9 34 -17 38 -9 5 -12 16 -9 28 5 15 1 22 -14 26 -11 3 -19 9 -16 13
3 4 -7 16 -20 26 -29 21 -32 34 -9 34 8 0 13 4 9 10 -3 5 -11 8 -18 6 -7 -1
-9 -1 -4 1 4 3 7 12 7 20 0 10 -6 13 -17 8 -13 -4 -15 -3 -7 5 18 18 40 1 70
-56 15 -29 31 -54 34 -54 4 0 44 -32 91 -71 81 -68 139 -107 139 -93 0 4 -8
13 -17 20 -10 7 -15 16 -11 20 14 13 48 -27 42 -51 -10 -39 28 -45 266 -45
l220 0 0 574 c0 451 -3 575 -12 579 -10 3 -10 7 -1 18 21 25 9 95 -22 139 -34
45 -49 51 -43 16 3 -15 0 -27 -8 -30 -17 -6 -12 -62 5 -58 7 1 10 -2 6 -8 -8
-13 -32 -13 -48 0 -41 33 -97 87 -97 93 0 9 -27 35 -70 68 -19 15 -45 36 -57
48 -12 12 -25 21 -29 21 -3 0 -17 9 -31 20 l-26 20 34 -6 c97 -19 279 -93 279
-115 0 -5 10 -13 23 -19 21 -11 21 -10 3 4 -11 9 -17 16 -13 16 11 0 58 -30
85 -54 l22 -19 0 391 c0 241 -4 392 -10 392 -5 0 -13 -8 -19 -17 -8 -15 -11
-15 -25 -3 -15 11 -19 10 -33 -9 -12 -18 -22 -22 -44 -17 -22 4 -29 2 -29 -9
0 -8 9 -15 19 -15 29 0 34 -17 8 -24 -30 -8 -39 -7 -33 2 2 4 -11 6 -29 4 -23
-3 -40 -13 -51 -30 -14 -22 -18 -23 -26 -9 -13 24 -28 21 -28 -4 0 -18 -4 -20
-27 -14 -35 8 -37 11 -30 29 3 8 16 16 29 19 19 4 18 5 -6 6 -17 0 -40 11 -54
24 -23 21 -24 21 -37 4 -11 -16 -16 -16 -33 -6 -12 7 -26 23 -32 35 -13 23
-76 48 -86 33 -3 -5 6 -9 20 -9 16 0 26 -6 26 -15 0 -7 6 -18 14 -22 8 -4 16
-21 18 -38 3 -26 0 -30 -20 -28 -13 2 -33 -6 -44 -17 -24 -22 -34 -25 -43 -10
-10 17 -23 11 -28 -12 -3 -15 -5 -9 -6 14 l-1 37 38 -5 c32 -5 35 -3 21 8 -18
15 -14 38 7 38 16 0 19 26 5 35 -5 3 -12 -4 -16 -15 -8 -26 -39 -26 -76 1 -24
17 -33 18 -44 9 -9 -8 -15 -8 -15 -2 0 23 -35 3 -42 -24 -5 -21 -6 -16 -4 18
3 44 -6 68 -28 68 -5 0 -1 -9 9 -20 10 -12 13 -20 6 -20 -8 0 -9 -13 -5 -40 4
-24 3 -40 -3 -40 -5 0 -15 -18 -22 -40 -15 -51 -36 -66 -26 -19 4 19 11 38 16
44 5 5 9 23 9 40 0 23 -3 27 -10 15 -7 -11 -8 -2 -4 28 4 28 3 42 -5 42 -6 0
-11 7 -11 15 0 8 -5 15 -10 15 -6 0 -8 -10 -5 -22 2 -13 1 -39 -4 -58 -8 -31
-9 -27 -10 33 -1 41 3 67 10 67 5 0 3 10 -5 22 -12 17 -16 50 -17 133 -1 60
-4 135 -9 165 -5 40 -8 6 -9 -121 0 -97 -6 -201 -13 -230 -16 -75 -16 -155 0
-152 6 2 12 -2 12 -7 0 -17 -29 -11 -38 8 -13 24 -21 111 -12 117 11 7 5 105
-8 136 -8 21 -7 42 5 90 10 40 16 115 18 199 0 74 3 162 4 195 3 57 3 58 12
25 5 -19 7 -61 4 -92 -4 -33 -2 -58 3 -58 5 0 12 37 15 83 13 199 31 367 39
355 6 -11 14 96 9 126 -4 19 21 116 29 116 5 0 7 6 4 13 -2 7 2 21 11 32 14
19 16 19 29 3 7 -10 15 -18 17 -18 9 0 4 65 -5 72 -6 4 2 24 17 47 15 22 27
45 27 51 0 5 6 9 13 7 8 -1 13 14 15 48 4 75 11 102 23 84 6 -9 7 1 3 31 -4
31 -3 41 4 31 17 -24 19 29 3 62 -10 21 -10 32 -2 40 19 19 12 80 -14 127 -55
100 -57 109 -50 195 3 44 6 107 6 139 0 40 9 80 26 123 14 35 23 67 19 70 -3
4 -6 -1 -6 -10 0 -9 -4 -17 -8 -17 -5 0 -14 -18 -21 -41 -7 -23 -14 -39 -16
-37 -15 15 -48 126 -54 181 l-7 67 51 -6 c27 -4 51 -8 52 -9 2 -1 4 -25 5 -53
4 -65 16 -68 20 -4 l3 48 115 -22 c63 -13 138 -28 165 -33 216 -46 343 -71
358 -71 15 0 17 14 17 139 0 124 -2 140 -17 145 -10 3 -90 18 -178 35 -88 16
-266 51 -395 76 -129 26 -251 49 -270 52 -19 3 -40 10 -47 15 -22 18 -11 120
29 258 60 207 78 269 78 274 0 2 -22 7 -50 11 -53 7 -63 23 -37 58 10 15 20
16 60 8 46 -8 47 -8 53 18 3 14 12 44 19 66 26 76 57 180 75 250 10 39 32 116
49 172 32 105 42 160 16 88 -8 -22 -31 -94 -51 -160 -20 -66 -38 -123 -40
-126 -2 -4 -22 -1 -44 4 -27 8 -39 16 -35 25 3 7 16 55 29 105 36 134 77 279
86 302 5 11 15 43 23 70 8 28 18 60 22 73 5 18 2 22 -14 22 -16 0 -21 -6 -21
-26 0 -14 -4 -22 -10 -19 -6 3 -7 -1 -4 -10 4 -8 1 -21 -5 -28 -5 -7 -42 -125
-81 -263 -84 -296 -95 -333 -130 -444 -15 -47 -35 -119 -45 -160 -10 -41 -29
-113 -42 -159 l-25 -83 -31 6 c-38 8 -45 15 -27 26 13 9 13 10 0 10 -8 0 -44
27 -80 60 -36 33 -68 60 -72 60 -15 0 -135 60 -153 77 -12 10 -34 26 -50 35
-19 10 -31 26 -33 42 -2 15 -8 24 -13 20 -5 -3 -7 -10 -4 -15 4 -5 -4 -9 -17
-9 -17 0 -19 3 -9 9 8 5 11 16 7 29 -4 11 -2 23 4 27 15 9 12 42 -4 42 -8 0
-11 -8 -8 -20 4 -15 2 -18 -8 -12 -8 5 -11 4 -6 -3 11 -19 -5 -63 -23 -61 -9
2 -38 -1 -64 -5 -33 -5 -53 -4 -63 5 -10 8 -14 8 -14 0 0 -6 -3 -11 -7 -11 -5
0 -9 27 -9 60 -1 33 2 58 6 55 5 -3 15 8 24 25 8 17 11 28 6 25 -4 -3 -10 2
-13 9 -3 8 -1 16 6 19 9 3 8 13 -4 38 -24 49 -38 118 -26 122 6 2 -4 9 -21 16
-20 9 -30 19 -29 32 1 10 5 19 10 19 9 0 95 -47 115 -62 7 -6 15 -8 18 -5 8 8
-101 77 -121 77 -8 0 -15 5 -15 10 0 10 86 385 96 423 5 16 -6 17 -140 17
l-144 0 -7 -32 c-24 -123 -40 -185 -52 -194 -8 -7 -10 -14 -4 -15 6 -3 6 -21
-1 -51 l-11 -48 -58 0 c-41 0 -58 4 -63 15 -3 8 -10 15 -16 15 -6 0 -8 -5 -4
-12 5 -8 0 -9 -17 -4 -79 25 -183 36 -287 32 -77 -2 -115 0 -120 8 -7 11 -17
14 -92 20 -24 2 -46 9 -48 16 -2 6 -15 15 -28 20 -13 5 -24 17 -24 25 0 13 -4
14 -20 5 -13 -7 -20 -7 -20 -1 0 6 -9 15 -20 21 -15 8 -18 7 -15 -2 8 -19 -58
-52 -88 -44 -26 6 -97 66 -97 82 0 10 -78 48 -97 47 -7 0 -13 3 -13 7 0 24
-135 -17 -174 -52 -17 -16 -38 -28 -46 -27 -22 2 -60 -12 -60 -22 0 -5 -6 -9
-12 -9 -7 -1 -31 -9 -53 -20 -50 -24 -65 -25 -66 -2 0 13 -2 14 -6 2 -6 -14
-22 -30 -33 -30 -5 0 -6 66 -2 99 2 11 5 11 20 0 16 -13 16 -13 0 7 -13 14
-16 30 -11 57 3 20 10 37 14 37 5 0 9 11 9 25 0 15 -6 25 -15 25 -9 0 -15 -9
-14 -22z m479 -104 c0 -2 -7 -4 -15 -4 -8 0 -15 4 -15 10 0 5 7 7 15 4 8 -4
15 -8 15 -10z m290 -80 c0 -10 -42 -44 -53 -44 -6 0 0 11 13 25 22 24 40 32
40 19z m-1803 -56 c-3 -8 -6 -5 -6 6 -1 11 2 17 5 13 3 -3 4 -12 1 -19z m1053
-2 c0 -2 -7 -7 -16 -10 -8 -3 -12 -2 -9 4 6 10 25 14 25 6z m-1040 -42 c0 -8
-4 -12 -10 -9 -5 3 -10 13 -10 21 0 8 5 12 10 9 6 -3 10 -13 10 -21z m2290 -4
c19 -6 11 -8 -32 -9 -33 -1 -58 3 -58 9 0 12 54 12 90 0z m-123 -16 c-3 -3
-12 -4 -19 -1 -8 3 -5 6 6 6 11 1 17 -2 13 -5z m207 -4 c-7 -7 -19 -7 -35 -1
-23 9 -22 10 11 10 23 1 31 -2 24 -9z m26 -20 c-8 -5 -22 -9 -30 -9 -10 0 -8
3 5 9 27 12 43 12 25 0z m-1431 -71 c-5 -11 -12 -32 -14 -47 -1 -15 -3 -30 -4
-34 0 -4 -17 -12 -36 -19 -19 -7 -35 -17 -35 -21 0 -11 14 -10 27 3 8 8 13 8
17 0 4 -6 0 -11 -8 -11 -9 0 -16 -5 -16 -10 0 -7 7 -7 21 0 11 7 23 9 26 6 10
-9 -19 -37 -33 -32 -7 3 -18 -2 -24 -10 -14 -16 -50 -19 -50 -4 0 6 4 10 8 10
5 0 17 7 28 16 10 8 13 12 5 8 -9 -4 -12 -3 -7 4 3 5 1 12 -5 14 -9 3 -9 10 1
28 24 48 91 130 101 125 5 -4 5 -14 -2 -26z m1891 -120 c0 -5 -4 -9 -10 -9 -5
0 -10 7 -10 16 0 8 5 12 10 9 6 -3 10 -10 10 -16z m-1950 -84 c-7 -9 -15 -13
-19 -10 -3 3 1 10 9 15 21 14 24 12 10 -5z m-56 -32 c-14 -10 -20 -11 -23 -2
-2 7 5 18 15 26 14 10 20 11 23 2 2 -7 -5 -18 -15 -26z m-74 -15 c0 -9 4 -8
11 2 8 12 10 12 7 1 -5 -18 -48 -22 -48 -4 0 7 7 13 15 13 8 0 15 -6 15 -12z
m-365 -268 c-3 -5 -10 -10 -16 -10 -5 0 -9 5 -9 10 0 6 7 10 16 10 8 0 12 -4
9 -10z m-35 -30 c0 -5 -4 -10 -10 -10 -5 0 -10 5 -10 10 0 6 5 10 10 10 6 0
10 -4 10 -10z m-95 -69 c-6 -5 -25 10 -25 20 0 5 6 4 14 -3 8 -7 12 -15 11
-17z m54 -36 c-12 -19 -25 -32 -30 -29 -9 5 -6 12 26 51 21 26 23 11 4 -22z
m-41 16 c1 -1 -3 -7 -10 -15 -15 -16 -28 -12 -28 9 0 11 12 13 38 6z m-38 -31
c0 -5 -7 -10 -16 -10 -10 0 -14 -6 -10 -15 3 -8 2 -15 -3 -15 -16 0 -19 13 -8
31 12 20 37 26 37 9z m1892 -162 c-6 -6 -15 -8 -19 -4 -4 4 -1 11 7 16 19 12
27 3 12 -12z m-75 -114 c-3 -3 -12 -4 -19 -1 -8 3 -5 6 6 6 11 1 17 -2 13 -5z
m103 -34 c0 -5 -4 -10 -9 -10 -6 0 -13 5 -16 10 -3 6 1 10 9 10 9 0 16 -4 16
-10z m-1909 -113 c-10 -9 -11 -8 -5 6 3 10 9 15 12 12 3 -3 0 -11 -7 -18z
m-64 -99 c-3 -8 -6 -5 -6 6 -1 11 2 17 5 13 3 -3 4 -12 1 -19z m15 -110 c-20
-30 -22 -31 -22 -10 0 34 19 67 32 54 8 -8 4 -21 -10 -44z m-22 -60 c0 -13 -5
-30 -10 -38 -9 -13 -12 -12 -25 4 -8 11 -14 27 -14 35 1 13 2 12 6 -1 6 -24
23 -23 23 2 0 11 5 20 10 20 6 0 10 -10 10 -22z m-70 -23 c0 -8 -2 -15 -4 -15
-2 0 -6 7 -10 15 -3 8 -1 15 4 15 6 0 10 -7 10 -15z m3658 -47 l1 -33 -14 25
c-18 32 -18 40 -2 40 9 0 14 -12 15 -32z m-50 -38 l0 -25 -8 25 c-4 14 -8 34
-8 45 l-1 20 9 -20 c5 -11 8 -31 8 -45z m-3538 -14 c0 -26 -12 -46 -27 -46 -8
0 -12 6 -9 13 3 6 9 20 12 30 8 20 24 23 24 3z m-90 -66 c0 -5 -2 -10 -4 -10
-3 0 -8 5 -11 10 -3 6 -1 10 4 10 6 0 11 -4 11 -10z m3725 -116 c4 -29 1 -45
-14 -63 l-19 -24 -7 31 c-7 33 -1 52 17 52 5 0 7 -7 4 -16 -3 -8 -2 -12 4 -9
15 9 12 32 -5 39 -15 6 -20 37 -8 50 10 10 21 -15 28 -60z m10 -85 c-4 -12 -3
-19 1 -16 12 7 5 -115 -7 -128 -6 -5 -7 10 -3 40 6 41 5 47 -8 43 -18 -7 -17
26 1 61 15 27 24 27 16 0z m-3864 -225 c-25 -32 -27 -23 -4 17 10 17 19 25 21
19 2 -5 -6 -22 -17 -36z m3896 -241 c-3 -10 -5 -4 -5 12 0 17 2 24 5 18 2 -7
2 -21 0 -30z m-5 -55 c-7 -7 -12 -8 -12 -2 0 14 12 26 19 19 2 -3 -1 -11 -7
-17z m-3982 -4 c0 -8 -5 -12 -10 -9 -6 4 -8 11 -5 16 9 14 15 11 15 -7z m2945
-14 c3 -5 1 -10 -4 -10 -6 0 -11 5 -11 10 0 6 2 10 4 10 3 0 8 -4 11 -10z
m-3205 -10 c0 -5 -7 -7 -15 -4 -8 4 -15 8 -15 10 0 2 7 4 15 4 8 0 15 -4 15
-10z m175 -49 c3 -5 1 -12 -5 -16 -5 -3 -10 1 -10 9 0 18 6 21 15 7z m985 -1
c0 -11 -14 -11 -50 0 -22 7 -21 8 13 9 20 1 37 -3 37 -9z m37 -16 c-3 -3 -12
-4 -19 -1 -8 3 -5 6 6 6 11 1 17 -2 13 -5z m-1720 -10 c-3 -3 -12 -4 -19 -1
-8 3 -5 6 6 6 11 1 17 -2 13 -5z m741 -19 c-3 -3 -9 2 -12 12 -6 14 -5 15 5 6
7 -7 10 -15 7 -18z m932 15 c8 -5 11 -10 5 -10 -5 0 -17 5 -25 10 -8 5 -10 10
-5 10 6 0 17 -5 25 -10z m-420 -14 c0 -8 -8 -17 -17 -21 -84 -33 -292 -63
-328 -47 -19 9 -24 8 -29 -5 -5 -12 -10 -13 -18 -5 -24 24 -1 39 64 41 34 1
108 12 163 25 120 28 165 32 165 12z m-1570 -53 c0 -11 -30 -33 -45 -33 -12 0
-16 -6 -12 -20 4 -17 0 -20 -25 -20 -25 0 -28 -3 -23 -20 4 -12 2 -20 -5 -20
-7 0 -10 13 -8 33 2 27 7 31 26 29 12 -2 22 2 22 7 0 6 -10 12 -22 12 -18 1
-16 3 7 8 17 3 31 12 31 19 1 6 2 14 3 16 2 5 51 -5 51 -11z m1057 -15 c-3 -8
-6 -5 -6 6 -1 11 2 17 5 13 3 -3 4 -12 1 -19z m-1013 -3 c-19 -14 -18 -14 4
-15 12 0 22 -5 22 -11 0 -7 8 -18 18 -25 15 -12 15 -12 -5 -7 -13 3 -23 12
-23 19 0 22 -31 16 -37 -7 -9 -31 -103 -57 -103 -28 0 7 10 9 25 5 14 -4 25
-2 25 4 0 5 9 10 20 10 15 0 20 7 20 29 0 20 6 31 18 34 32 9 36 7 16 -8z
m1176 -35 c0 -11 0 -23 1 -27 0 -5 -7 -9 -15 -11 -11 -2 -16 4 -16 21 0 13 3
27 7 30 12 13 23 7 23 -13z m80 -9 c0 -35 -7 -41 -41 -34 -22 4 -25 9 -21 34
4 24 9 29 33 29 25 0 29 -4 29 -29z m58 -10 c-2 -20 -9 -26 -28 -28 l-25 -2
25 8 c14 5 19 9 12 10 -7 1 -11 5 -8 10 4 5 1 11 -6 13 -6 2 -8 9 -4 16 12 20
37 1 34 -27z m925 3 c31 -15 67 -54 50 -54 -5 0 -28 16 -52 35 -49 39 -48 43
2 19z m-1446 -36 c-3 -7 -5 -2 -5 12 0 14 2 19 5 13 2 -7 2 -19 0 -25z m357 3
c3 -5 -1 -14 -9 -21 -13 -10 -15 -9 -15 9 0 21 14 28 24 12z m-144 -11 c0 -5
-10 -10 -22 -9 -22 0 -22 1 -3 9 11 5 21 9 23 9 1 1 2 -3 2 -9z m570 -37 c0
-22 -2 -24 -15 -13 -8 7 -15 24 -15 37 0 22 2 24 15 13 8 -7 15 -24 15 -37z
m-359 -89 c4 -112 0 -194 -11 -194 -6 0 -10 41 -10 103 -1 62 -6 117 -15 142
-22 60 -19 74 9 44 19 -21 24 -38 27 -95z m-214 19 c-3 -10 -5 -2 -5 17 0 19
2 27 5 18 2 -10 2 -26 0 -35z m1193 37 c0 -5 -4 -10 -10 -10 -5 0 -10 5 -10
10 0 6 5 10 10 10 6 0 10 -4 10 -10z m1425 0 c3 -6 -5 -10 -19 -10 -14 0 -28
5 -31 10 -3 6 5 10 19 10 14 0 28 -4 31 -10z m133 -26 c5 3 18 -2 28 -10 10
-9 13 -13 7 -9 -7 3 -13 1 -13 -4 0 -6 -7 -11 -16 -11 -13 0 -14 3 -5 13 8 11
5 13 -19 9 -24 -3 -29 -1 -27 17 1 19 3 19 18 5 10 -9 22 -13 27 -10z m-1337
-21 c13 -16 12 -17 -3 -4 -10 7 -18 15 -18 17 0 8 8 3 21 -13z m-828 -20 c-7
-2 -13 -12 -13 -20 0 -9 -3 -14 -6 -10 -10 10 4 37 18 36 10 0 10 -2 1 -6z
m707 -41 c-28 -5 -33 1 -25 29 l8 23 20 -25 19 -24 -22 -3z m1505 38 c-3 -5
-11 -10 -16 -10 -6 0 -7 5 -4 10 3 6 11 10 16 10 6 0 7 -4 4 -10z m-2495 -255
c16 -76 53 -167 101 -248 45 -75 162 -202 178 -192 6 3 19 -3 30 -14 19 -19
19 -19 24 5 5 26 -7 40 -37 45 -11 2 -20 12 -22 21 -1 10 -5 36 -9 58 -4 24
-3 40 3 40 13 0 10 33 -3 42 -7 5 -6 15 3 28 10 16 10 20 0 18 -8 -2 -12 5
-11 17 1 11 3 92 5 180 1 88 5 144 8 125 5 -33 6 -34 13 -10 5 19 9 22 16 11
5 -8 18 -12 31 -8 13 3 23 0 26 -8 8 -20 52 -15 57 6 3 11 12 19 21 19 15 0
15 -2 0 -25 -9 -14 -23 -25 -30 -25 -8 0 -14 -9 -14 -20 0 -13 7 -20 20 -20
11 0 20 -5 20 -11 0 -5 15 -24 33 -40 45 -42 151 -90 133 -60 -11 17 207 32
250 18 16 -6 20 -14 16 -38 -3 -19 2 -36 13 -49 25 -28 44 -88 45 -142 0 -51
-39 -168 -65 -194 -27 -27 -16 -36 18 -14 27 18 26 16 -8 -14 -90 -79 -257
-104 -400 -58 -110 34 -225 105 -307 189 -52 52 -77 71 -90 67 -12 -4 -18 0
-18 11 0 9 5 13 10 10 13 -8 5 41 -9 58 -16 21 -51 120 -66 190 -8 38 -14 110
-14 160 l2 92 8 -83 c4 -45 13 -107 19 -137z m287 153 c-3 -7 -5 -2 -5 12 0
14 2 19 5 13 2 -7 2 -19 0 -25z m738 22 c9 -14 -57 -29 -77 -16 -9 5 -14 14
-12 18 7 11 82 10 89 -2z m-1728 -6 c-3 -3 -12 -4 -19 -1 -8 3 -5 6 6 6 11 1
17 -2 13 -5z m8 -19 c104 -15 272 -47 346 -66 l37 -9 -2 -143 c-1 -139 -2
-142 -23 -142 -12 0 -25 -3 -29 -7 -14 -15 -24 -8 -24 18 0 26 -1 26 -25 10
-15 -10 -25 -12 -25 -6 0 6 -4 9 -9 5 -6 -3 -8 -15 -5 -28 2 -12 10 -60 16
-106 9 -67 15 -85 30 -88 10 -3 18 -9 18 -14 0 -4 17 -9 38 -11 32 -3 37 -6
37 -28 0 -24 -1 -25 -77 -21 l-77 3 -6 -29 c-4 -15 -8 -34 -11 -40 -7 -26
-244 -12 -316 18 -23 9 -28 18 -28 46 0 26 -5 36 -20 40 -15 4 -19 11 -15 32
18 100 17 199 -4 187 -4 -3 -18 -41 -31 -86 -17 -54 -29 -80 -40 -80 -12 0
-12 -2 -2 -9 11 -7 11 -9 -2 -14 -21 -8 -21 -5 11 86 15 43 38 90 51 104 24
27 26 55 6 121 -5 16 -2 22 9 22 23 0 27 22 27 134 0 57 3 106 7 109 9 9 15 9
138 -8z m-1195 -95 c0 -5 -2 -10 -4 -10 -3 0 -8 5 -11 10 -3 6 -1 10 4 10 6 0
11 -4 11 -10z m4130 -10 c0 -13 -11 -13 -30 0 -12 8 -11 10 8 10 12 0 22 -4
22 -10z m55 0 c3 -5 1 -10 -4 -10 -6 0 -11 5 -11 10 0 6 2 10 4 10 3 0 8 -4
11 -10z m-2528 -32 c-3 -7 -5 -2 -5 12 0 14 2 19 5 13 2 -7 2 -19 0 -25z
m-1430 -23 c59 -9 63 -24 5 -17 -26 3 -49 9 -51 15 -2 5 -7 4 -11 -3 -5 -8 -9
-5 -13 9 -4 17 -2 19 11 12 10 -5 36 -12 59 -16z m96 -22 c9 -9 -12 -33 -30
-33 -11 0 -11 4 -3 20 11 21 22 25 33 13z m57 -23 c18 -12 2 -12 -25 0 -13 6
-15 9 -5 9 8 0 22 -4 30 -9z m1284 -12 c9 -34 7 -151 -3 -166 -8 -13 -21 83
-21 156 0 37 15 43 24 10z m-1407 -160 c-3 -8 -6 -5 -6 6 -1 11 2 17 5 13 3
-3 4 -12 1 -19z m1330 -20 c-3 -7 -5 -2 -5 12 0 14 2 19 5 13 2 -7 2 -19 0
-25z m-1087 -28 c0 -5 -8 -10 -17 -10 -15 0 -16 2 -3 10 19 12 20 12 20 0z
m-80 -40 c0 -6 -8 -14 -17 -17 -10 -4 -33 -17 -52 -30 -39 -27 -51 -29 -51 -8
0 9 6 12 15 9 9 -4 15 0 15 10 0 9 8 16 18 16 9 0 26 7 36 15 23 18 36 19 36
5z m2430 -100 c-12 -16 -24 -30 -26 -30 -3 0 4 14 16 30 12 17 24 30 26 30 3
0 -4 -13 -16 -30z m-2513 14 c-3 -3 -12 -4 -19 -1 -8 3 -5 6 6 6 11 1 17 -2
13 -5z m5018 -147 c-9 -28 -19 -59 -22 -67 -3 -9 1 -7 9 4 14 17 15 16 16 -15
0 -19 -5 -52 -13 -74 -7 -22 -16 -52 -19 -67 -4 -16 -10 -28 -15 -28 -11 0 -2
119 11 144 7 12 7 21 0 25 -6 4 -5 24 4 56 7 28 13 54 14 58 0 5 5 5 10 2 6
-4 11 9 11 32 2 30 3 32 6 10 2 -15 -3 -51 -12 -80z m-5098 17 c-3 -3 -12 -4
-19 -1 -8 3 -5 6 6 6 11 1 17 -2 13 -5z m1267 -110 c13 -5 15 -27 10 -162 -3
-87 -7 -163 -9 -169 -8 -24 -155 -13 -155 11 0 7 -14 25 -31 42 -55 52 -55 59
-2 113 26 26 75 76 107 110 33 33 61 61 62 61 1 0 9 -3 18 -6z m96 -77 c0 -28
-34 -126 -42 -124 -6 1 -12 -6 -13 -15 -2 -10 1 -18 6 -18 15 0 10 -20 -11
-47 l-20 -26 0 29 c0 20 3 25 9 15 5 -7 11 -9 14 -4 3 5 2 15 -4 23 -5 8 -8
44 -8 80 1 62 1 63 10 26 14 -59 21 -58 13 2 -4 36 -3 57 6 67 9 10 9 15 1 15
-6 0 -11 5 -11 10 0 6 11 3 25 -6 14 -9 25 -21 25 -27z m-260 3 c0 -5 -2 -10
-4 -10 -3 0 -8 5 -11 10 -3 6 -1 10 4 10 6 0 11 -4 11 -10z m-42 -13 c-7 -8
-25 -19 -38 -26 -22 -11 -21 -9 5 13 31 27 57 36 33 13z m3971 -39 c-1 -29 -8
-60 -16 -70 -9 -10 -11 -18 -4 -22 7 -4 7 -15 1 -29 -5 -12 -14 -41 -20 -64
-11 -45 -24 -54 -34 -27 -4 10 1 26 11 37 13 15 15 21 6 24 -7 3 -13 9 -13 14
0 6 4 8 9 5 11 -7 28 33 26 61 -1 12 2 20 7 17 4 -3 8 6 8 19 0 31 11 87 17
87 2 0 3 -24 2 -52z m-3649 -35 c-18 -32 -20 -34 -15 -11 3 15 10 40 17 55 8
21 12 24 15 11 2 -9 -5 -34 -17 -55z m3724 -29 c-1 -31 -7 -61 -12 -67 -11
-13 -15 -39 -13 -72 1 -17 3 -18 11 -5 11 17 13 9 3 -15 -5 -15 -8 -14 -18 6
-12 21 -13 19 -24 -32 -6 -30 -13 -63 -15 -74 -3 -11 -4 37 -3 106 3 121 4
129 31 168 16 23 32 41 36 41 4 0 6 -25 4 -56z m-4119 2 c0 -25 -3 -42 -7 -40
-10 7 -10 84 0 84 4 0 7 -20 7 -44z m3749 -34 c-24 -36 -30 -12 -8 30 14 26
19 29 22 15 2 -10 -4 -30 -14 -45z m-3272 26 c-7 -7 -12 -8 -12 -2 0 6 3 14 7
17 3 4 9 5 12 2 2 -3 -1 -11 -7 -17z m-41 -31 c-10 -9 -11 -8 -5 6 3 10 9 15
12 12 3 -3 0 -11 -7 -18z m-30 -20 c-9 -24 -28 -43 -36 -35 -2 2 5 18 17 36
23 37 33 37 19 -1z m3799 -27 c0 -22 -3 -40 -8 -40 -4 0 -6 18 -4 40 2 22 6
40 8 40 2 0 4 -18 4 -40z m-3760 -8 c0 -5 -9 -17 -21 -28 -21 -19 -21 -19 -8
9 12 26 29 37 29 19z m718 -23 c-10 -7 -10 -9 0 -9 7 0 12 -14 12 -35 0 -19
-4 -35 -10 -35 -5 0 -10 10 -10 21 0 18 -2 19 -15 9 -18 -15 -19 -15 -34 29
-16 49 -15 50 30 39 28 -8 37 -13 27 -19z m2862 -168 c-13 -90 -25 -92 -36 -5
-5 40 -1 68 18 125 l23 73 3 -54 c2 -30 -2 -93 -8 -139z m-3630 175 c0 -3 -4
-8 -10 -11 -5 -3 -10 -1 -10 4 0 6 5 11 10 11 6 0 10 -2 10 -4z m3850 -93
c-11 -17 -11 -17 -6 0 3 10 7 33 8 50 l1 32 4 -32 c2 -18 -1 -41 -7 -50z m-35
6 c4 -33 4 -63 1 -66 -3 -4 -6 10 -6 30 0 22 -5 36 -11 35 -6 -2 -14 4 -16 12
-4 13 -3 13 6 0 9 -12 11 -11 11 8 0 12 -5 22 -11 22 -5 0 -7 5 -4 10 14 23
23 7 30 -51z m-3855 41 c0 -5 -4 -10 -10 -10 -5 0 -10 5 -10 10 0 6 5 10 10
10 6 0 10 -4 10 -10z m4056 -21 c11 -9 18 -8 29 1 12 10 15 10 15 -4 0 -12
-10 -16 -40 -16 -22 0 -43 -1 -47 -2 -5 -2 -9 7 -11 19 -3 18 1 21 18 18 12
-2 28 -9 36 -16z m-321 -9 c3 -5 1 -10 -4 -10 -6 0 -11 5 -11 10 0 6 2 10 4
10 3 0 8 -4 11 -10z m40 -39 c-4 -17 -11 -29 -16 -26 -7 5 -7 25 0 75 1 2 6
-1 12 -7 7 -7 8 -24 4 -42z m-4375 18 c-19 -5 -69 -9 -110 -10 -54 -1 -69 -4
-55 -10 14 -6 1 -8 -40 -5 -38 3 -53 1 -40 -4 14 -6 6 -8 -30 -8 -44 0 -47 1
-20 9 21 5 13 6 -25 2 -30 -3 -52 -2 -49 2 4 3 29 9 55 11 27 3 81 9 119 13
39 5 106 9 150 9 66 0 74 -2 45 -9z m4900 1 c0 -5 -7 -10 -15 -10 -8 0 -15 5
-15 10 0 6 7 10 15 10 8 0 15 -4 15 -10z m364 -5 c4 -10 -1 -15 -16 -15 -17 0
-18 2 -8 15 7 8 14 15 15 15 2 0 5 -7 9 -15z m-5124 -16 c-244 -17 -366 -37
-585 -99 -88 -24 -101 -25 -50 -1 22 11 33 20 24 20 -9 1 -30 -6 -45 -14 -16
-8 -38 -15 -49 -16 l-20 0 20 -10 c17 -8 17 -9 -5 -4 -14 2 -32 5 -40 5 -8 1
-1 8 15 16 17 8 22 12 12 9 -11 -3 -31 -7 -45 -10 l-27 -5 25 12 c128 61 214
82 298 74 57 -6 251 12 349 32 18 4 79 5 135 3 l103 -5 -115 -7z m1287 -1 c-3
-8 -6 -5 -6 6 -1 11 2 17 5 13 3 -3 4 -12 1 -19z m2736 -43 c7 -62 -7 -94 -17
-40 -6 32 1 102 9 93 2 -2 6 -26 8 -53z m987 40 c0 -8 -4 -15 -10 -15 -5 0
-10 7 -10 15 0 8 5 15 10 15 6 0 10 -7 10 -15z m-659 -78 c1 -31 -1 -60 -4
-64 -4 -3 -7 24 -7 62 0 82 8 83 11 2z m-4454 47 c-3 -3 -12 -4 -19 -1 -8 3
-5 6 6 6 11 1 17 -2 13 -5z m4312 -48 c-5 -17 -9 -33 -9 -35 0 -3 -5 0 -11 6
-7 7 -8 20 -3 34 8 24 10 32 13 47 1 4 5 1 10 -7 5 -8 5 -27 0 -45z m81 44 c0
-5 -4 -10 -10 -10 -5 0 -10 5 -10 10 0 6 5 10 10 10 6 0 10 -4 10 -10z m-2923
-39 c3 -14 14 -38 24 -52 30 -43 39 -75 26 -88 -7 -7 -12 -17 -12 -24 0 -7
-11 -14 -24 -15 -19 -3 -23 0 -19 15 4 15 0 19 -16 19 -18 -1 -22 7 -31 68 -7
46 -15 71 -25 74 -20 7 -31 25 -20 32 5 3 27 4 50 2 34 -4 41 -8 47 -31z
m2618 7 c-11 -56 -16 -68 -27 -68 -13 0 -4 66 13 86 18 22 21 17 14 -18z m407
10 c-7 -7 -12 -8 -12 -2 0 14 12 26 19 19 2 -3 -1 -11 -7 -17z m-4315 6 c-3
-3 -12 -4 -19 -1 -8 3 -5 6 6 6 11 1 17 -2 13 -5z m4339 -22 c-17 -16 -18 -16
-5 5 7 12 15 20 18 17 3 -2 -3 -12 -13 -22z m124 18 c0 -5 -9 -10 -19 -10 -11
0 -26 -7 -35 -15 -22 -22 -39 -20 -26 4 5 11 22 22 37 24 16 2 31 5 36 6 4 0
7 -3 7 -9z m-228 -40 c3 23 5 15 6 -25 0 -58 0 -59 -13 -30 -7 17 -15 46 -18
65 -6 34 -6 34 7 -5 l14 -40 4 35z m-4308 15 c-4 -8 -11 -12 -16 -9 -6 4 -5
10 3 15 19 12 19 11 13 -6z m4259 -15 c3 -11 1 -20 -4 -20 -5 0 -9 9 -9 20 0
11 2 20 4 20 2 0 6 -9 9 -20z m-99 -16 c3 -9 2 -12 -5 -9 -7 5 -8 -5 -4 -29 4
-20 3 -36 -1 -36 -5 0 -9 15 -8 33 2 61 6 71 18 41z m-4999 -14 c-22 -11 -57
-26 -79 -35 -21 -9 -37 -18 -35 -20 7 -6 120 33 146 51 24 15 73 10 57 -6 -5
-5 -43 -18 -84 -28 -41 -11 -88 -25 -103 -31 -35 -14 -40 -14 -32 -1 10 16 -3
12 -83 -29 -108 -56 -131 -65 -138 -58 -3 3 8 13 26 22 17 9 60 36 96 59 35
24 85 49 111 55 27 7 68 18 93 26 63 18 72 17 25 -5z m4907 -10 c3 -16 1 -30
-4 -30 -4 0 -8 14 -8 30 0 17 2 30 4 30 2 0 6 -13 8 -30z m305 -7 c-3 -10 -5
-4 -5 12 0 17 2 24 5 18 2 -7 2 -21 0 -30z m-385 5 c-7 -7 -12 -8 -12 -2 0 14
12 26 19 19 2 -3 -1 -11 -7 -17z m-4069 -5 c-7 -2 -19 -2 -25 0 -7 3 -2 5 12
5 14 0 19 -2 13 -5z m4107 -3 c0 -5 -4 -10 -10 -10 -5 0 -10 5 -10 10 0 6 5
10 10 10 6 0 10 -4 10 -10z m166 -6 c-3 -9 -6 -25 -6 -36 0 -32 -14 -11 -16
23 -1 20 3 29 13 29 10 0 13 -6 9 -16z m-252 -78 c3 -21 1 -24 -10 -15 -8 6
-14 23 -14 37 0 34 20 15 24 -22z m71 23 c-4 -5 -3 -9 2 -9 4 0 9 -35 9 -78 1
-56 0 -67 -5 -40 -4 20 -13 43 -19 51 -7 8 -10 16 -7 18 2 3 5 21 7 41 1 20 6
34 10 32 5 -3 6 -10 3 -15z m-4358 -5 c-3 -3 -12 -4 -19 -1 -8 3 -5 6 6 6 11
1 17 -2 13 -5z m4333 -9 c0 -8 -2 -15 -4 -15 -2 0 -6 7 -10 15 -3 8 -1 15 4
15 6 0 10 -7 10 -15z m-80 -23 c0 -22 -37 -82 -49 -82 -9 0 -3 25 24 98 6 18
25 5 25 -16z m-4837 11 c-7 -2 -19 -2 -25 0 -7 3 -2 5 12 5 14 0 19 -2 13 -5z
m4557 -47 c0 -3 -4 -8 -10 -11 -5 -3 -10 -1 -10 4 0 6 5 11 10 11 6 0 10 -2
10 -4z m327 -28 c-3 -7 -5 -2 -5 12 0 14 2 19 5 13 2 -7 2 -19 0 -25z m-235 0
c-7 -7 -12 -8 -12 -2 0 14 12 26 19 19 2 -3 -1 -11 -7 -17z m198 5 c-1 -10 -6
-30 -13 -45 -11 -24 -14 -26 -31 -13 -16 12 -17 17 -6 30 7 9 19 14 25 11 8
-3 11 2 8 15 -3 10 0 19 6 19 6 0 11 -8 11 -17z m84 -38 c-3 -17 -6 -49 -7
-72 -2 -37 -15 -71 -18 -47 -6 41 -5 60 2 64 5 3 5 19 1 35 -5 17 -4 38 2 51
14 30 27 9 20 -31z m-4539 35 c3 -5 1 -10 -5 -10 -6 0 -8 -4 -5 -10 3 -5 1
-10 -4 -10 -6 0 -11 5 -11 10 0 6 -11 8 -25 4 -15 -4 -25 -2 -25 4 0 18 65 29
75 12z m62 4 c-3 -3 -12 -4 -19 -1 -8 3 -5 6 6 6 11 1 17 -2 13 -5z m39 -16
c-21 -5 -41 -6 -44 -3 -3 3 2 5 11 5 10 0 17 4 17 9 0 4 12 6 28 3 26 -5 25
-6 -12 -14z m-278 -19 c13 0 11 -3 -6 -11 -26 -13 -37 -6 -27 19 5 12 9 14 12
6 3 -7 12 -13 21 -14z m4660 -15 c-3 -14 -5 -12 -10 9 -3 19 -2 25 4 19 6 -6
8 -18 6 -28z m-251 -6 c-19 -46 -39 -49 -25 -4 6 20 17 36 25 36 11 0 11 -5 0
-32z m-4353 -9 c-45 -8 -59 -3 -20 7 14 3 26 11 26 16 0 6 7 4 17 -3 14 -12
12 -15 -23 -20z m4586 -15 c0 -22 -2 -24 -14 -14 -8 6 -12 18 -9 26 9 23 23
16 23 -12z m-56 5 c-2 -4 0 -10 5 -14 6 -3 3 -18 -7 -35 l-17 -30 -5 28 c-8
36 -2 59 15 59 8 0 12 -4 9 -8z m526 -24 c0 -5 -5 -3 -10 5 -5 8 -10 20 -10
25 0 6 5 3 10 -5 5 -8 10 -19 10 -25z m-495 -44 c-16 -32 -55 -69 -55 -52 0
13 27 69 43 89 17 22 27 -8 12 -37z m55 40 c0 -6 -4 -13 -10 -16 -5 -3 -10 1
-10 9 0 9 5 16 10 16 6 0 10 -4 10 -9z m-4613 -27 c-3 -3 -12 -4 -19 -1 -8 3
-5 6 6 6 11 1 17 -2 13 -5z m4278 -46 c-4 -24 -13 -50 -21 -59 -8 -8 -14 -20
-14 -26 0 -6 -7 -13 -15 -17 -17 -6 -21 9 -5 19 6 3 10 13 10 22 0 18 39 103
47 103 3 0 2 -19 -2 -42z m190 -40 c-14 -28 -14 -30 -1 -14 9 11 18 17 21 14
3 -3 -2 -13 -11 -22 -26 -26 -38 -5 -24 41 20 65 23 70 28 41 2 -15 -4 -42
-13 -60z m130 72 c3 -5 2 -10 -3 -10 -5 0 -7 -10 -5 -23 5 -27 -10 -42 -51
-53 -33 -8 -32 -5 9 53 31 44 40 50 50 33z m-4778 -15 c0 -17 -7 -18 -33 -8
-16 6 -16 7 2 14 28 11 31 11 31 -6z m113 5 c0 -5 -5 -10 -11 -10 -5 0 -7 5
-4 10 3 6 8 10 11 10 2 0 4 -4 4 -10z m137 4 c-3 -3 -12 -4 -19 -1 -8 3 -5 6
6 6 11 1 17 -2 13 -5z m4318 -16 c-17 -57 -30 -88 -37 -88 -8 0 -1 50 13 88 5
12 13 22 19 22 7 0 9 -9 5 -22z m241 -35 c-10 -10 -19 5 -10 18 6 11 8 11 12
0 2 -7 1 -15 -2 -18z m-4970 -6 c-10 -7 -28 -22 -39 -35 -12 -12 -32 -29 -46
-38 -14 -9 -3 7 26 35 28 28 57 51 65 50 8 0 6 -5 -6 -12z m4663 -81 c-3 -34
-12 -73 -19 -86 l-14 -25 -7 25 c-6 21 -7 18 -8 -16 -1 -41 -23 -85 -37 -72
-4 5 -2 19 4 33 7 14 15 51 18 83 7 60 35 119 57 119 10 0 11 -15 6 -61z m301
57 c0 -5 -5 -15 -10 -23 -8 -12 -10 -11 -10 8 0 12 5 22 10 22 6 0 10 -3 10
-7z m-5125 -13 c-3 -5 -11 -10 -16 -10 -6 0 -7 5 -4 10 3 6 11 10 16 10 6 0 7
-4 4 -10z m5080 1 c-6 -5 -23 -12 -40 -16 -29 -6 -29 -6 -11 9 21 17 67 23 51
7z m-338 -103 c-3 -8 -6 -5 -6 6 -1 11 2 17 5 13 3 -3 4 -12 1 -19z m-7 -50
c0 -13 -5 -18 -14 -15 -12 5 -16 -5 -19 -41 -3 -43 -4 -42 -5 14 -1 33 1 63 4
67 11 11 34 -5 34 -25z m-90 -48 c0 -5 -4 -10 -10 -10 -5 0 -10 5 -10 10 0 6
5 10 10 10 6 0 10 -4 10 -10z m149 -17 c0 -10 -4 -27 -9 -38 -7 -16 -9 -13 -9
18 -1 20 4 37 9 37 6 0 10 -8 9 -17z m-2673 -79 c17 -25 16 -26 -22 -65 -35
-36 -122 -99 -137 -99 -8 0 7 50 27 88 13 25 98 102 112 102 2 0 11 -11 20
-26z m-166 13 c0 -2 -11 -13 -25 -25 -27 -24 -35 -13 -9 12 14 14 34 22 34 13z
m2220 -7 c0 -5 -7 -10 -16 -10 -9 0 -12 -5 -8 -12 4 -7 3 -8 -5 -4 -9 6 -9 11
0 22 13 16 29 18 29 4z m675 -20 c3 -5 2 -10 -4 -10 -5 0 -13 5 -16 10 -3 6
-2 10 4 10 5 0 13 -4 16 -10z m-2985 -7 c-1 -11 -26 -43 -34 -43 -10 0 -7 25
6 38 13 13 28 16 28 5z m347 -84 c3 -10 12 -19 20 -19 7 0 26 -11 40 -24 24
-22 25 -26 10 -40 -8 -9 -24 -27 -35 -40 -27 -36 -136 -92 -217 -113 -52 -13
-63 -19 -43 -21 61 -7 276 92 310 142 5 7 8 6 8 -3 0 -24 -47 -77 -97 -110
-51 -34 -186 -81 -233 -81 -38 0 -50 -20 -13 -21 26 -1 26 -2 -7 -9 -51 -12
-160 -22 -160 -15 0 4 20 35 45 69 25 35 52 80 60 100 10 23 20 34 27 30 7 -4
8 -3 4 4 -5 8 1 12 15 12 22 0 22 0 3 14 -10 8 -17 16 -14 18 3 2 19 12 35 23
25 15 28 16 16 2 -31 -38 11 -14 56 32 62 62 95 83 118 75 13 -5 16 -4 10 5
-6 10 -3 11 15 1 12 -7 25 -21 27 -31z m-387 16 c0 -8 -4 -15 -10 -15 -5 0 -7
7 -4 15 4 8 8 15 10 15 2 0 4 -7 4 -15z m120 -27 c-5 -13 -11 -34 -14 -48 -4
-17 -18 -31 -43 -42 -64 -28 -80 -30 -87 -11 -4 10 -3 19 2 21 5 1 40 25 78
51 38 27 70 50 71 50 2 1 -2 -9 -7 -21z m-175 -118 c-10 -11 -20 -18 -23 -15
-3 3 3 14 13 25 10 11 20 18 23 15 3 -3 -3 -14 -13 -25z m2249 5 c-4 -8 -11
-15 -16 -15 -6 0 -5 6 2 15 7 8 14 15 16 15 2 0 1 -7 -2 -15z m-2123 -18 c-6
-8 -8 -16 -5 -20 9 -9 -47 -98 -58 -91 -5 3 -8 -2 -6 -12 2 -12 -2 -18 -10
-16 -8 1 -11 -2 -7 -8 3 -5 -2 -21 -12 -35 -15 -20 -26 -24 -68 -24 -27 0 -65
6 -84 13 l-35 12 36 28 c20 15 61 40 92 56 31 16 56 32 56 37 -1 8 89 71 104
72 5 1 3 -5 -3 -12z m3169 -93 c0 -20 -20 -27 -26 -9 -6 13 -8 14 -15 3 -5 -7
-8 -20 -8 -28 0 -10 3 -8 9 5 8 18 9 17 9 -7 1 -15 -4 -30 -11 -34 -7 -4 -8
-3 -4 4 4 7 1 12 -8 12 -12 0 -14 5 -6 26 14 36 12 52 -4 31 -9 -12 -16 -14
-21 -8 -3 6 -1 11 4 11 6 0 11 7 11 15 0 8 7 15 16 15 11 0 14 6 9 23 -5 16 0
13 19 -12 14 -19 26 -40 26 -47z m-1105 26 c-3 -5 -11 -10 -16 -10 -6 0 -7 5
-4 10 3 6 11 10 16 10 6 0 7 -4 4 -10z m-1716 -33 c-14 -13 -23 -29 -21 -37 3
-9 -1 -11 -11 -7 -12 4 -14 0 -11 -17 6 -36 -111 -111 -227 -146 -49 -14 -87
-29 -83 -32 9 -10 -51 -19 -136 -21 -56 -2 -74 -6 -72 -15 1 -8 -2 -11 -8 -7
-15 9 -12 22 8 42 10 10 35 39 56 66 35 42 42 47 80 47 54 0 190 25 241 43 55
21 123 55 165 83 44 30 53 30 19 1z m-596 -14 c-7 -2 -13 -9 -13 -14 0 -6 5
-7 10 -4 6 3 10 4 10 1 0 -3 -10 -10 -21 -17 -12 -6 -19 -7 -17 -2 3 4 8 16
11 26 4 9 12 17 19 16 10 0 10 -2 1 -6z m3477 -23 c0 -5 -4 -10 -10 -10 -5 0
-10 5 -10 10 0 6 5 10 10 10 6 0 10 -4 10 -10z m-161 -54 c-9 -30 -32 -53 -37
-36 -2 5 1 18 7 29 6 11 11 29 11 41 0 17 2 19 14 8 9 -9 11 -21 5 -42z m191
27 c0 -5 -5 -15 -10 -23 -8 -12 -10 -11 -10 8 0 12 5 22 10 22 6 0 10 -3 10
-7z m66 -59 c28 -38 90 -96 125 -116 19 -10 25 -18 17 -21 -7 -3 -3 -6 9 -6
34 -1 75 -30 113 -79 56 -72 57 -75 13 -57 -21 9 -60 24 -88 32 -60 18 -86 39
-38 30 l32 -6 -42 42 c-23 24 -72 76 -109 116 -37 40 -72 70 -77 66 -7 -4 -8
0 -4 11 4 12 3 15 -5 10 -8 -5 -10 -2 -6 8 8 20 33 7 60 -30z m-3466 -13 c-1
-19 -90 -101 -108 -101 -12 0 -22 -4 -22 -10 0 -5 -5 -10 -11 -10 -6 0 -9 7
-5 15 3 8 2 15 -2 15 -11 0 -11 103 0 110 9 7 148 -12 148 -19z m3241 -19 c-6
-2 -11 -11 -11 -19 0 -9 -3 -14 -6 -10 -4 3 -3 14 1 24 5 10 9 21 10 26 6 20
8 21 12 2 3 -10 0 -21 -6 -23z m169 -2 c0 -5 -7 -7 -15 -4 -8 4 -15 8 -15 10
0 2 7 4 15 4 8 0 15 -4 15 -10z m-89 -37 c-8 -15 -10 -15 -11 -2 0 17 10 32
18 25 2 -3 -1 -13 -7 -23z m65 -5 c-2 -13 -9 -22 -15 -20 -16 3 -14 -21 5 -54
l15 -29 -6 35 c-7 33 -6 34 9 15 16 -19 16 -19 14 10 -3 26 0 30 22 28 39 -2
59 -8 72 -21 10 -10 8 -14 -10 -18 -24 -7 -25 -9 -12 -39 8 -19 9 -19 9 4 1
17 5 21 17 17 9 -4 13 -2 8 5 -4 7 -1 10 7 7 8 -3 13 -13 12 -22 0 -10 4 -15
10 -13 7 3 12 -5 12 -17 0 -19 -6 -21 -65 -23 -72 -2 -71 2 4 12 33 5 45 9 36
15 -8 5 -19 5 -25 0 -12 -10 -65 -8 -82 3 -12 8 -18 -4 -14 -26 1 -5 -3 -6 -9
-2 -6 3 -8 11 -5 16 4 5 -1 9 -9 9 -9 0 -18 11 -22 24 -4 16 -11 23 -20 19
-21 -8 -17 6 12 49 31 44 35 46 30 16z m57 5 c-7 -2 -21 -2 -30 0 -10 3 -4 5
12 5 17 0 24 -2 18 -5z m-136 -55 c-3 -8 -6 -5 -6 6 -1 11 2 17 5 13 3 -3 4
-12 1 -19z m1041 -33 c43 -19 79 -50 98 -87 16 -31 19 -72 4 -63 -6 3 -10 -4
-10 -17 0 -32 -33 -95 -47 -91 -12 4 -22 -42 -32 -145 -1 -9 -8 -6 -23 8 -12
11 -27 20 -34 20 -6 0 -14 6 -17 14 -3 8 -21 17 -39 21 -18 4 -36 12 -39 18
-4 5 -10 -1 -14 -13 -4 -13 -21 -34 -37 -48 -22 -19 -26 -27 -16 -33 7 -4 9
-12 4 -16 -10 -11 -66 53 -66 76 0 10 7 38 15 61 8 23 15 59 16 79 1 53 69
203 100 218 33 17 92 16 137 -2z m-4353 -5 c3 -5 -1 -10 -10 -10 -9 0 -13 5
-10 10 3 6 8 10 10 10 2 0 7 -4 10 -10z m1925 -50 c0 -5 -7 -10 -16 -10 -8 0
-12 5 -9 10 3 6 10 10 16 10 5 0 9 -4 9 -10z m1620 -50 c17 -17 30 -35 30 -40
0 -6 7 -10 15 -10 17 0 20 -16 6 -25 -6 -3 -20 8 -32 25 -21 27 -53 47 -71 42
-5 -1 -8 7 -8 18 0 29 26 25 60 -10z m-123 4 c-3 -3 -12 -4 -19 -1 -8 3 -5 6
6 6 11 1 17 -2 13 -5z m286 -19 c21 -9 22 -19 0 -36 -13 -11 -17 -11 -20 -1
-3 6 -11 12 -19 12 -9 0 -13 4 -10 9 3 5 -4 11 -15 14 -12 3 -18 10 -15 16 6
9 34 4 79 -14z m-1810 -4 c-5 -21 -31 -31 -78 -31 l-30 1 30 24 c37 31 86 34
78 6z m1847 -45 c0 -3 -4 -8 -10 -11 -5 -3 -10 -1 -10 4 0 6 5 11 10 11 6 0
10 -2 10 -4z m20 -30 c0 -11 -19 -15 -25 -6 -3 5 1 10 9 10 9 0 16 -2 16 -4z
m774 -95 c-9 -10 -26 18 -18 30 5 9 9 8 14 -7 4 -10 6 -21 4 -23z m-734 19 c0
-5 -7 -10 -15 -10 -8 0 -15 5 -15 10 0 6 7 10 15 10 8 0 15 -4 15 -10z m-44
-40 c0 -11 -6 -20 -13 -20 -14 0 -18 22 -6 33 12 12 19 7 19 -13z m-46 -30 c0
-11 -7 -20 -15 -20 -17 0 -18 2 -9 24 9 23 24 20 24 -4z m35 -10 c3 -6 -1 -7
-9 -4 -18 7 -21 14 -7 14 6 0 13 -4 16 -10z m-130 -10 c-3 -5 -10 -10 -16 -10
-5 0 -9 5 -9 10 0 6 7 10 16 10 8 0 12 -4 9 -10z"/>
<path d="M1578 3033 c7 -3 16 -2 19 1 4 3 -2 6 -13 5 -11 0 -14 -3 -6 -6z"/>
<path d="M1450 3020 c0 -5 5 -10 10 -10 6 0 10 5 10 10 0 6 -4 10 -10 10 -5 0
-10 -4 -10 -10z"/>
<path d="M1622 2860 c0 -14 2 -19 5 -12 2 6 2 18 0 25 -3 6 -5 1 -5 -13z"/>
<path d="M1601 2844 c0 -11 3 -14 6 -6 3 7 2 16 -1 19 -3 4 -6 -2 -5 -13z"/>
<path d="M708 1933 c6 -2 18 -2 25 0 6 3 1 5 -13 5 -14 0 -19 -2 -12 -5z"/>
<path d="M590 1914 c-35 -8 -69 -19 -75 -26 -7 -8 -5 -9 10 -4 11 4 45 12 75
18 30 6 59 15 65 19 11 11 7 11 -75 -7z"/>
<path d="M2136 1132 c-3 -5 1 -9 9 -9 8 0 12 4 9 9 -3 4 -7 8 -9 8 -2 0 -6 -4
-9 -8z"/>
<path d="M1909 939 c-19 -16 -20 -18 -4 -10 34 17 51 31 39 31 -7 0 -22 -9
-35 -21z"/>
<path d="M1890 840 l-25 -20 33 12 c17 7 32 16 32 20 0 13 -13 9 -40 -12z"/>
<path d="M1808 763 c7 -3 16 -2 19 1 4 3 -2 6 -13 5 -11 0 -14 -3 -6 -6z"/>
<path d="M5440 460 c0 -5 5 -10 10 -10 6 0 10 5 10 10 0 6 -4 10 -10 10 -5 0
-10 -4 -10 -10z"/>
<path d="M5408 6393 c7 -3 16 -2 19 1 4 3 -2 6 -13 5 -11 0 -14 -3 -6 -6z"/>
<path d="M5445 6390 c3 -5 10 -10 16 -10 5 0 9 5 9 10 0 6 -7 10 -16 10 -8 0
-12 -4 -9 -10z"/>
<path d="M5545 6391 c15 -15 143 -27 130 -13 -5 6 -39 14 -75 17 -45 4 -62 3
-55 -4z"/>
<path d="M5840 6270 c-23 -73 -40 -134 -38 -136 2 -2 23 56 46 128 23 72 40
133 38 135 -3 3 -23 -54 -46 -127z"/>
<path d="M236 6374 c-9 -24 -7 -28 9 -14 17 14 20 30 6 30 -5 0 -12 -7 -15
-16z"/>
<path d="M575 6380 c-3 -5 1 -10 9 -10 9 0 16 5 16 10 0 6 -4 10 -9 10 -6 0
-13 -4 -16 -10z"/>
<path d="M2200 6355 c0 -19 2 -35 4 -35 2 0 6 16 8 35 2 19 0 35 -4 35 -4 0
-8 -16 -8 -35z"/>
<path d="M160 6360 c0 -19 3 -21 12 -12 9 9 9 15 0 24 -9 9 -12 7 -12 -12z"/>
<path d="M2330 6370 c10 -6 15 -26 15 -60 0 -27 3 -50 8 -50 11 0 9 78 -3 101
-6 10 -16 19 -23 19 -7 0 -6 -4 3 -10z"/>
<path d="M2432 6343 c2 -22 6 -39 11 -36 10 6 8 45 -3 63 -7 11 -9 4 -8 -27z"/>
<path d="M350 6360 c0 -5 6 -10 14 -10 8 0 18 5 21 10 3 6 -3 10 -14 10 -12 0
-21 -4 -21 -10z"/>
<path d="M387 6330 c-4 -15 0 -20 16 -20 18 0 19 2 7 10 -13 8 -13 10 2 10 9
0 20 5 23 10 3 6 -5 10 -18 10 -16 0 -26 -7 -30 -20z"/>
<path d="M2255 6315 c0 -14 3 -25 8 -25 4 0 7 11 7 25 0 14 -3 25 -7 25 -5 0
-8 -11 -8 -25z"/>
<path d="M2302 6315 c0 -16 2 -22 5 -12 2 9 2 23 0 30 -3 6 -5 -1 -5 -18z"/>
<path d="M2516 6300 c8 -56 14 -64 14 -19 0 19 -5 41 -10 49 -7 10 -8 1 -4
-30z"/>
<path d="M2860 6320 c-13 -24 -13 -40 0 -40 6 0 10 5 10 11 0 7 7 17 16 24 16
11 16 12 1 18 -11 4 -20 -1 -27 -13z"/>
<path d="M131 6294 c-42 -18 -36 -25 28 -30 57 -5 77 10 28 20 -25 5 -29 9
-17 16 23 15 -1 11 -39 -6z"/>
<path d="M2390 6253 c0 -35 3 -44 10 -33 13 20 13 67 0 75 -6 4 -10 -12 -10
-42z"/>
<path d="M32 6260 c-10 -16 -10 -20 1 -20 7 0 18 5 25 12 9 9 12 9 12 0 0 -7
13 -12 30 -12 22 0 28 -4 24 -15 -6 -15 7 -21 19 -8 12 11 -14 33 -39 33 -15
0 -24 6 -24 15 0 22 -33 18 -48 -5z"/>
<path d="M382 6236 c1 -10 8 -17 13 -17 15 1 12 24 -3 29 -9 3 -13 -2 -10 -12z"/>
<path d="M160 6229 c0 -15 32 -18 45 -5 11 11 9 13 -16 12 -16 -1 -29 -4 -29
-7z"/>
<path d="M240 6225 c0 -8 5 -15 10 -15 6 0 10 7 10 15 0 8 -4 15 -10 15 -5 0
-10 -7 -10 -15z"/>
<path d="M60 6223 c1 -18 28 -44 35 -34 3 6 1 11 -5 11 -7 0 -10 7 -6 15 3 9
0 15 -9 15 -8 0 -15 -3 -15 -7z"/>
<path d="M2 6179 c4 -29 26 -36 24 -8 0 12 -7 24 -14 27 -9 3 -13 -3 -10 -19z"/>
<path d="M166 6173 c18 -14 18 -15 -3 -8 -13 3 -23 2 -23 -3 0 -12 27 -9 63 6
37 16 34 19 -15 19 -38 0 -40 -1 -22 -14z"/>
<path d="M45 6170 c3 -5 10 -10 16 -10 5 0 9 5 9 10 0 6 -7 10 -16 10 -8 0
-12 -4 -9 -10z"/>
<path d="M108 6163 c7 -3 16 -2 19 1 4 3 -2 6 -13 5 -11 0 -14 -3 -6 -6z"/>
<path d="M458 6164 c6 -3 10 -10 6 -15 -3 -5 -2 -9 3 -9 10 0 40 19 33 21 -32
5 -52 7 -42 3z"/>
<path d="M283 6152 c-24 -2 -43 -7 -43 -11 0 -5 21 -7 48 -6 26 2 46 6 45 10
-2 10 -4 10 -50 7z"/>
<path d="M628 6153 c7 -3 16 -2 19 1 4 3 -2 6 -13 5 -11 0 -14 -3 -6 -6z"/>
<path d="M18 6143 c-10 -2 -18 -9 -18 -14 0 -6 8 -8 19 -4 12 4 21 0 25 -11 8
-20 19 -11 21 16 2 20 -10 23 -47 13z"/>
<path d="M3856 6142 c-3 -5 8 -9 24 -9 16 0 27 4 24 9 -3 4 -14 8 -24 8 -10 0
-21 -4 -24 -8z"/>
<path d="M90 6115 c-11 -13 -9 -15 15 -15 16 0 25 5 23 12 -7 19 -24 20 -38 3z"/>
<path d="M200 6120 c0 -5 5 -10 10 -10 6 0 10 5 10 10 0 6 -4 10 -10 10 -5 0
-10 -4 -10 -10z"/>
<path d="M0 6100 c0 -6 7 -10 15 -10 8 0 15 2 15 4 0 2 -7 6 -15 10 -8 3 -15
1 -15 -4z"/>
<path d="M320 6085 c0 -15 4 -24 10 -20 6 3 10 12 10 20 0 8 -4 17 -10 20 -6
4 -10 -5 -10 -20z"/>
<path d="M560 6100 c0 -5 5 -10 11 -10 5 0 7 5 4 10 -3 6 -8 10 -11 10 -2 0
-4 -4 -4 -10z"/>
<path d="M155 6081 c-3 -5 0 -13 6 -17 7 -4 9 -3 5 4 -3 5 0 13 6 15 9 4 10 6
1 6 -6 1 -14 -3 -18 -8z"/>
<path d="M341 6014 c0 -11 3 -14 6 -6 3 7 2 16 -1 19 -3 4 -6 -2 -5 -13z"/>
<path d="M11 5991 c-9 -6 0 -10 28 -13 22 -2 41 0 41 4 0 5 -6 8 -14 8 -8 0
-20 2 -28 5 -7 3 -19 1 -27 -4z"/>
<path d="M100 5980 c0 -5 5 -10 10 -10 6 0 10 5 10 10 0 6 -4 10 -10 10 -5 0
-10 -4 -10 -10z"/>
<path d="M850 5980 c0 -5 5 -10 11 -10 5 0 7 5 4 10 -3 6 -8 10 -11 10 -2 0
-4 -4 -4 -10z"/>
<path d="M280 5970 c0 -5 10 -10 23 -10 18 0 19 2 7 10 -19 13 -30 13 -30 0z"/>
<path d="M498 5973 c7 -3 16 -2 19 1 4 3 -2 6 -13 5 -11 0 -14 -3 -6 -6z"/>
<path d="M0 5950 c0 -5 7 -10 15 -10 8 0 15 5 15 10 0 6 -7 10 -15 10 -8 0
-15 -4 -15 -10z"/>
<path d="M4961 5924 c0 -11 3 -14 6 -6 3 7 2 16 -1 19 -3 4 -6 -2 -5 -13z"/>
<path d="M32 5924 c9 -3 19 -13 22 -22 3 -12 4 -12 3 3 -1 12 -10 21 -22 22
-15 1 -15 0 -3 -3z"/>
<path d="M200 5906 c0 -7 9 -16 20 -19 23 -6 26 3 8 21 -16 16 -28 15 -28 -2z"/>
<path d="M156 5893 c-6 -14 -5 -15 5 -6 7 7 10 15 7 18 -3 3 -9 -2 -12 -12z"/>
<path d="M81 5884 c0 -11 3 -14 6 -6 3 7 2 16 -1 19 -3 4 -6 -2 -5 -13z"/>
<path d="M385 5890 c3 -5 8 -10 11 -10 2 0 4 5 4 10 0 6 -5 10 -11 10 -5 0 -7
-4 -4 -10z"/>
<path d="M5278 5878 c5 -5 16 -8 23 -6 8 3 3 7 -10 11 -17 4 -21 3 -13 -5z"/>
<path d="M720 5850 c0 -5 5 -10 10 -10 6 0 10 5 10 10 0 6 -4 10 -10 10 -5 0
-10 -4 -10 -10z"/>
<path d="M4820 5857 c0 -2 15 -16 33 -33 l32 -29 -29 33 c-28 30 -36 37 -36
29z"/>
<path d="M28 5833 c7 -3 16 -2 19 1 4 3 -2 6 -13 5 -11 0 -14 -3 -6 -6z"/>
<path d="M448 5833 c6 -2 18 -2 25 0 6 3 1 5 -13 5 -14 0 -19 -2 -12 -5z"/>
<path d="M2590 5825 c-7 -9 -8 -15 -2 -15 5 0 12 7 16 15 3 8 4 15 2 15 -2 0
-9 -7 -16 -15z"/>
<path d="M4795 5820 c3 -5 11 -10 16 -10 6 0 7 5 4 10 -3 6 -11 10 -16 10 -6
0 -7 -4 -4 -10z"/>
<path d="M73 5798 c-26 -5 -43 -15 -43 -24 0 -19 24 -18 41 2 8 10 22 14 41
10 30 -6 48 8 22 18 -9 3 -16 6 -17 5 -1 -1 -21 -5 -44 -11z"/>
<path d="M380 5800 c0 -5 5 -10 10 -10 6 0 10 5 10 10 0 6 -4 10 -10 10 -5 0
-10 -4 -10 -10z"/>
<path d="M865 5800 c-3 -5 -1 -10 4 -10 6 0 11 5 11 10 0 6 -2 10 -4 10 -3 0
-8 -4 -11 -10z"/>
<path d="M4833 5788 c1 -10 10 -27 21 -36 20 -16 20 -16 7 1 -7 9 -9 17 -4 17
18 0 40 -35 47 -72 4 -21 12 -40 18 -44 7 -5 9 -2 5 9 -3 9 -1 18 6 21 9 3 9
5 0 5 -7 1 -13 10 -13 22 0 33 -29 74 -60 86 -25 10 -28 9 -27 -9z"/>
<path d="M190 5790 c0 -5 5 -10 10 -10 6 0 10 5 10 10 0 6 -4 10 -10 10 -5 0
-10 -4 -10 -10z"/>
<path d="M820 5790 c0 -5 7 -7 15 -4 8 4 15 8 15 10 0 2 -7 4 -15 4 -8 0 -15
-4 -15 -10z"/>
<path d="M560 5764 c0 -8 5 -12 10 -9 6 4 8 11 5 16 -9 14 -15 11 -15 -7z"/>
<path d="M648 5753 c7 -3 16 -2 19 1 4 3 -2 6 -13 5 -11 0 -14 -3 -6 -6z"/>
<path d="M25 5730 c3 -5 10 -10 16 -10 5 0 9 5 9 10 0 6 -7 10 -16 10 -8 0
-12 -4 -9 -10z"/>
<path d="M786 5725 c-3 -8 -1 -15 4 -15 6 0 10 7 10 15 0 8 -2 15 -4 15 -2 0
-6 -7 -10 -15z"/>
<path d="M666 5705 c4 -9 -2 -18 -17 -24 -21 -9 -21 -10 -4 -10 23 0 67 17 46
18 -7 1 -11 7 -7 16 3 9 0 15 -9 15 -9 0 -12 -6 -9 -15z"/>
<path d="M720 5704 c0 -8 5 -12 10 -9 6 3 10 10 10 16 0 5 -4 9 -10 9 -5 0
-10 -7 -10 -16z"/>
<path d="M2058 5713 c7 -3 16 -2 19 1 4 3 -2 6 -13 5 -11 0 -14 -3 -6 -6z"/>
<path d="M194 5697 c-5 -8 -16 -17 -24 -21 -8 -3 -2 -3 15 0 37 7 42 11 28 25
-8 8 -13 7 -19 -4z"/>
<path d="M245 5689 c-9 -14 -2 -20 14 -10 8 6 9 11 3 15 -6 3 -14 1 -17 -5z"/>
<path d="M2038 5693 c7 -3 16 -2 19 1 4 3 -2 6 -13 5 -11 0 -14 -3 -6 -6z"/>
<path d="M2120 5690 c0 -5 5 -10 10 -10 6 0 10 5 10 10 0 6 -4 10 -10 10 -5 0
-10 -4 -10 -10z"/>
<path d="M30 5675 c0 -8 -7 -15 -15 -15 -12 0 -15 -20 -15 -120 l0 -120 28 -1
27 -1 -30 -7 c-25 -6 -19 -9 37 -15 38 -5 97 -6 133 -4 50 3 61 1 46 -7 -15
-7 1 -10 67 -8 48 0 75 -1 59 -4 -15 -2 -25 -8 -22 -13 3 -5 13 -6 22 -3 9 4
21 -1 29 -12 8 -11 21 -16 34 -12 13 3 20 0 20 -10 0 -9 6 -13 13 -10 8 3 22
-5 31 -18 10 -13 24 -21 31 -19 7 3 19 -1 26 -9 7 -8 21 -12 30 -10 9 3 28 -3
42 -12 26 -17 35 -54 42 -184 12 -193 18 -246 31 -254 8 -4 14 -13 14 -20 0
-7 -4 -6 -10 3 -7 11 -10 7 -11 -20 -4 -86 16 -204 34 -193 4 3 3 -4 -5 -16
-10 -16 -10 -23 0 -33 6 -6 12 -19 12 -28 0 -13 -1 -13 -10 0 -10 16 -10 15
-14 -32 -1 -7 4 -12 10 -11 9 2 11 -26 8 -98 -3 -83 -1 -101 11 -105 14 -6 13
-8 -2 -20 -12 -9 -14 -16 -7 -21 17 -12 23 -48 11 -68 -7 -14 -5 -21 9 -32 15
-11 16 -15 5 -22 -9 -6 -11 -18 -5 -42 4 -19 8 -50 9 -69 0 -19 4 -40 8 -47 4
-6 3 -13 -3 -15 -5 -1 2 -8 16 -15 l26 -12 -6 97 c-16 253 -36 1186 -28 1273
4 45 6 47 32 42 37 -5 46 11 15 25 -24 11 -34 32 -15 32 16 0 24 71 9 82 -11
7 -9 8 6 6 14 -2 22 -15 28 -46 9 -45 26 -57 28 -19 1 14 4 9 11 -16 6 -21 17
-41 24 -44 8 -3 14 -14 14 -24 0 -10 3 -19 6 -19 13 0 33 36 34 59 0 21 -2 22
-17 10 -13 -11 -17 -11 -20 -1 -3 6 -11 12 -19 12 -8 0 -14 5 -14 10 0 17 24
22 52 11 18 -7 36 -6 58 2 25 10 33 9 41 -3 5 -8 7 -25 4 -36 -5 -24 18 -50
35 -39 17 10 12 55 -7 62 -23 8 -33 23 -33 47 0 15 3 16 15 6 13 -11 14 -10 9
4 -8 20 -8 20 -45 0 -36 -18 -82 -11 -113 17 -11 11 -26 19 -33 19 -7 0 -13 5
-13 10 0 6 5 10 10 10 6 0 10 5 10 11 0 7 -11 9 -27 6 -33 -6 -60 2 -43 13 8
5 7 9 -5 14 -13 4 -16 1 -13 -16 2 -16 12 -24 33 -28 22 -4 26 -7 14 -12 -31
-12 -54 -2 -57 25 -2 14 -11 28 -20 30 -15 4 -15 5 1 6 28 2 21 31 -8 31 -14
0 -25 4 -25 9 0 5 -19 13 -42 17 -59 10 -209 11 -195 1 16 -10 -83 3 -105 14
-23 12 -36 11 -18 -2 12 -8 10 -10 -10 -5 -14 2 -41 1 -60 -4 -28 -6 -17 -8
53 -9 49 -1 87 -5 87 -11 0 -15 -247 5 -267 22 -7 6 -13 7 -13 2 0 -5 -13 -10
-29 -11 -22 -2 -31 3 -36 20 -6 19 -8 20 -12 4 -3 -14 -13 -17 -36 -15 -41 4
-45 27 -12 67 21 24 23 31 11 31 -9 0 -16 -7 -16 -15z m507 -110 c-15 -8 -35
-11 -45 -7 -13 5 -10 8 13 13 51 11 61 9 32 -6z m73 6 c0 -5 14 -12 31 -16 17
-4 28 -9 26 -12 -7 -7 -85 16 -92 27 -3 6 3 10 14 10 12 0 21 -4 21 -9z m160
-110 c0 -21 -16 -2 -25 29 -7 24 -7 24 9 5 8 -11 16 -27 16 -34z m-617 -58
c-13 -2 -35 -2 -50 0 -16 2 -5 4 22 4 28 0 40 -2 28 -4z m634 -15 c-3 -8 -6
-5 -6 6 -1 11 2 17 5 13 3 -3 4 -12 1 -19z"/>
<path d="M440 5674 c0 -8 5 -12 10 -9 6 3 10 10 10 16 0 5 -4 9 -10 9 -5 0
-10 -7 -10 -16z"/>
<path d="M830 5669 c0 -5 5 -7 10 -4 6 3 10 8 10 11 0 2 -4 4 -10 4 -5 0 -10
-5 -10 -11z"/>
<path d="M297 5663 c-12 -12 -7 -22 8 -17 8 4 15 10 15 15 0 11 -14 12 -23 2z"/>
<path d="M708 5663 c-27 -7 -21 -23 7 -23 14 0 25 4 25 9 0 13 -12 18 -32 14z"/>
<path d="M120 5646 c0 -8 5 -18 10 -21 6 -3 10 1 10 9 0 8 -4 18 -10 21 -5 3
-10 -1 -10 -9z"/>
<path d="M2227 5644 c-3 -5 1 -15 9 -22 16 -14 18 -5 5 17 -5 7 -11 9 -14 5z"/>
<path d="M42 5620 c-10 -16 -10 -20 1 -20 6 0 18 9 25 20 10 16 10 20 -1 20
-6 0 -18 -9 -25 -20z"/>
<path d="M752 5623 c5 -25 28 -28 28 -4 0 12 -6 21 -16 21 -9 0 -14 -7 -12
-17z"/>
<path d="M458 5623 c7 -3 16 -2 19 1 4 3 -2 6 -13 5 -11 0 -14 -3 -6 -6z"/>
<path d="M1245 5610 c-3 -5 -1 -10 4 -10 6 0 11 5 11 10 0 6 -2 10 -4 10 -3 0
-8 -4 -11 -10z"/>
<path d="M2105 5610 c-3 -5 -1 -10 4 -10 6 0 11 5 11 10 0 6 -2 10 -4 10 -3 0
-8 -4 -11 -10z"/>
<path d="M2265 5610 c4 -6 11 -8 16 -5 14 9 11 15 -7 15 -8 0 -12 -5 -9 -10z"/>
<path d="M215 5600 c3 -5 16 -10 28 -10 18 0 19 2 7 10 -20 13 -43 13 -35 0z"/>
<path d="M710 5600 c-8 -5 -10 -10 -5 -10 6 0 17 5 25 10 8 5 11 10 5 10 -5 0
-17 -5 -25 -10z"/>
<path d="M4936 5594 c-4 -9 -4 -19 -1 -22 2 -3 7 3 11 12 4 9 4 19 1 22 -2 3
-7 -3 -11 -12z"/>
<path d="M2071 5534 c0 -11 3 -14 6 -6 3 7 2 16 -1 19 -3 4 -6 -2 -5 -13z"/>
<path d="M1105 5530 c3 -5 8 -10 11 -10 2 0 4 5 4 10 0 6 -5 10 -11 10 -5 0
-7 -4 -4 -10z"/>
<path d="M920 5510 c-22 -17 -23 -19 -7 -25 19 -8 47 10 47 31 0 19 -10 17
-40 -6z"/>
<path d="M848 5513 c6 -2 18 -2 25 0 6 3 1 5 -13 5 -14 0 -19 -2 -12 -5z"/>
<path d="M2060 5491 c0 -6 5 -13 10 -16 6 -3 10 1 10 9 0 9 -4 16 -10 16 -5 0
-10 -4 -10 -9z"/>
<path d="M1130 5475 c0 -8 5 -15 10 -15 6 0 10 7 10 15 0 8 -4 15 -10 15 -5 0
-10 -7 -10 -15z"/>
<path d="M946 5459 c-16 -16 -17 -19 -4 -19 9 0 19 7 22 16 9 24 4 24 -18 3z"/>
<path d="M1990 5450 c19 -13 30 -13 30 0 0 6 -10 10 -22 10 -19 0 -20 -2 -8
-10z"/>
<path d="M1085 5440 c-3 -5 -1 -10 4 -10 6 0 11 5 11 10 0 6 -2 10 -4 10 -3 0
-8 -4 -11 -10z"/>
<path d="M2075 5440 c-3 -5 -2 -10 4 -10 5 0 13 5 16 10 3 6 2 10 -4 10 -5 0
-13 -4 -16 -10z"/>
<path d="M1927 5433 c-12 -11 -8 -23 8 -23 8 0 15 7 15 15 0 16 -12 20 -23 8z"/>
<path d="M1520 5420 c0 -5 7 -10 16 -10 8 0 12 5 9 10 -3 6 -10 10 -16 10 -5
0 -9 -4 -9 -10z"/>
<path d="M1650 5420 c0 -5 7 -10 16 -10 8 0 12 5 9 10 -3 6 -10 10 -16 10 -5
0 -9 -4 -9 -10z"/>
<path d="M1975 5370 c3 -5 8 -10 11 -10 2 0 4 5 4 10 0 6 -5 10 -11 10 -5 0
-7 -4 -4 -10z"/>
<path d="M1112 5343 c-2 -22 0 -24 13 -13 18 15 19 26 2 33 -8 3 -14 -4 -15
-20z"/>
<path d="M990 5320 c0 -22 5 -40 10 -40 6 0 10 18 10 40 0 22 -4 40 -10 40 -5
0 -10 -18 -10 -40z"/>
<path d="M1278 5353 c7 -3 16 -2 19 1 4 3 -2 6 -13 5 -11 0 -14 -3 -6 -6z"/>
<path d="M857 5343 c-12 -11 -8 -23 8 -23 8 0 15 7 15 15 0 16 -12 20 -23 8z"/>
<path d="M1152 5338 c-7 -7 -12 -21 -12 -32 0 -31 -14 -48 -33 -40 -10 3 -17
1 -17 -5 0 -17 40 -13 46 4 10 24 26 17 19 -7 -7 -23 -7 -23 8 -3 8 11 13 24
10 30 -3 5 0 4 8 -3 11 -10 11 -16 1 -35 -10 -16 -6 -15 12 6 15 15 26 25 26
22 0 -3 10 0 23 7 23 13 35 15 107 21 25 2 54 8 65 15 19 11 18 11 -7 12 -14
0 -29 -6 -31 -12 -4 -10 -8 -10 -16 2 -8 12 -14 12 -34 1 -27 -14 -97 -21 -97
-9 0 5 6 8 13 8 9 0 8 3 -2 9 -7 5 -21 6 -31 4 -10 -3 -21 0 -24 6 -9 14 -19
14 -34 -1z"/>
<path d="M1660 5341 l25 -8 -25 -5 c-22 -4 -23 -5 -6 -13 12 -5 21 -3 26 6 12
18 3 29 -23 28 -20 -1 -20 -2 3 -8z"/>
<path d="M1433 5316 c-9 -11 1 -13 55 -14 58 0 62 1 27 8 -22 4 -47 10 -55 13
-8 4 -20 0 -27 -7z"/>
<path d="M1600 5316 c0 -2 7 -7 16 -10 8 -3 12 -2 9 4 -6 10 -25 14 -25 6z"/>
<path d="M1745 5310 c3 -5 8 -10 11 -10 2 0 4 5 4 10 0 6 -5 10 -11 10 -5 0
-7 -4 -4 -10z"/>
<path d="M865 5298 c-19 -11 -19 -11 0 -19 11 -4 -5 -5 -35 -3 -39 3 -49 2
-35 -5 11 -5 39 -10 63 -10 35 -1 42 2 42 18 0 26 -11 32 -35 19z"/>
<path d="M780 5240 c0 -5 12 -10 28 -9 24 0 25 1 7 9 -27 12 -35 12 -35 0z"/>
<path d="M1432 5214 c1 -32 -13 -89 -23 -92 -10 -4 -2 -22 10 -22 13 0 33 112
22 123 -6 6 -10 3 -9 -9z"/>
<path d="M1537 5175 c-4 -27 -7 -59 -7 -69 -1 -11 -6 -29 -11 -40 -10 -20 -9
-20 5 -2 17 21 29 88 24 132 -3 23 -5 19 -11 -21z"/>
<path d="M1155 5200 c3 -5 8 -10 11 -10 2 0 4 5 4 10 0 6 -5 10 -11 10 -5 0
-7 -4 -4 -10z"/>
<path d="M1346 5177 c-7 -21 -7 -21 -16 -2 -8 18 -9 18 -9 2 -1 -10 -5 -15
-11 -12 -5 3 -10 1 -10 -5 0 -7 7 -10 15 -6 8 3 15 1 15 -4 0 -6 4 -10 8 -10
13 0 33 48 23 55 -5 2 -12 -5 -15 -18z"/>
<path d="M1390 5177 c0 -15 -4 -27 -10 -27 -5 0 -10 -4 -10 -10 0 -5 7 -10 15
-10 19 0 31 48 16 63 -8 8 -11 4 -11 -16z"/>
<path d="M1465 5180 c3 -5 8 -10 11 -10 2 0 4 5 4 10 0 6 -5 10 -11 10 -5 0
-7 -4 -4 -10z"/>
<path d="M1458 5143 c0 -10 -2 -22 -3 -28 -2 -5 -3 -16 -4 -23 0 -7 -5 -10
-11 -7 -5 3 -10 1 -10 -4 0 -14 17 -14 26 0 12 21 22 79 13 79 -5 0 -10 -8
-11 -17z"/>
<path d="M1506 5146 c3 -7 -2 -21 -11 -30 -14 -13 -14 -16 -2 -16 15 0 27 20
27 46 0 8 -4 14 -10 14 -5 0 -7 -6 -4 -14z"/>
<path d="M1870 5150 c0 -5 5 -10 10 -10 6 0 10 5 10 10 0 6 -4 10 -10 10 -5 0
-10 -4 -10 -10z"/>
<path d="M1125 5090 c3 -5 8 -10 11 -10 2 0 4 5 4 10 0 6 -5 10 -11 10 -5 0
-7 -4 -4 -10z"/>
<path d="M1259 5082 c0 -10 -2 -25 -4 -35 -2 -9 1 -15 6 -11 5 3 9 12 9 20 0
8 7 14 15 14 22 0 18 17 -5 23 -14 4 -20 0 -21 -11z"/>
<path d="M2005 5090 c3 -5 8 -10 11 -10 2 0 4 5 4 10 0 6 -5 10 -11 10 -5 0
-7 -4 -4 -10z"/>
<path d="M1309 5060 c-7 -35 -4 -48 7 -38 3 4 4 21 2 40 l-3 33 -6 -35z"/>
<path d="M1347 5070 c-12 -34 -15 -60 -6 -60 11 0 23 45 16 62 -3 10 -6 9 -10
-2z"/>
<path d="M1383 5047 c0 -7 -3 -23 -8 -37 -7 -22 -6 -23 9 -11 17 14 22 46 8
55 -5 3 -9 0 -9 -7z"/>
<path d="M1410 4991 c0 -60 15 -88 42 -78 9 4 7 6 -4 6 -22 1 -29 25 -23 84 3
27 1 47 -5 47 -6 0 -10 -26 -10 -59z"/>
<path d="M1451 5028 c0 -9 -4 -25 -7 -35 -5 -14 -4 -15 5 -7 7 7 11 22 8 35
-2 13 -5 16 -6 7z"/>
<path d="M1101 5004 c0 -11 3 -14 6 -6 3 7 2 16 -1 19 -3 4 -6 -2 -5 -13z"/>
<path d="M1912 4980 c0 -14 2 -19 5 -12 2 6 2 18 0 25 -3 6 -5 1 -5 -13z"/>
<path d="M1192 4950 c-6 -11 -12 -28 -12 -37 1 -13 5 -10 16 10 18 33 15 57
-4 27z"/>
<path d="M4035 4959 c-9 -14 4 -27 13 -13 4 6 14 14 22 17 10 4 8 6 -7 6 -12
1 -25 -4 -28 -10z"/>
<path d="M1237 4947 c-4 -10 -7 -26 -7 -35 1 -15 2 -15 11 1 6 10 9 25 7 35
-3 16 -4 15 -11 -1z"/>
<path d="M1285 4914 c-7 -40 -3 -49 18 -41 16 6 29 57 16 57 -5 0 -9 -12 -9
-26 0 -14 -4 -23 -8 -20 -5 3 -7 19 -4 36 6 42 -4 38 -13 -6z"/>
<path d="M1259 4912 c-3 -20 -2 -29 4 -23 5 5 7 19 5 32 -3 20 -5 19 -9 -9z"/>
<path d="M1476 4880 c-4 -28 -9 -56 -12 -63 -3 -9 5 -13 23 -12 22 0 29 5 31
24 2 13 -2 28 -8 35 -10 8 -11 5 -6 -16 3 -16 2 -28 -3 -28 -15 0 -21 29 -11
56 12 31 13 54 1 54 -5 0 -11 -23 -15 -50z"/>
<path d="M1339 4893 c-3 -18 -2 -33 2 -33 13 0 16 14 9 40 -6 24 -7 24 -11 -7z"/>
<path d="M3680 4910 c0 -5 5 -10 10 -10 6 0 10 5 10 10 0 6 -4 10 -10 10 -5 0
-10 -4 -10 -10z"/>
<path d="M1378 4884 c3 -16 -1 -30 -9 -35 -11 -7 -9 -9 7 -9 17 0 20 5 16 30
-2 17 -8 32 -12 35 -4 2 -5 -7 -2 -21z"/>
<path d="M1408 4850 c-3 -16 -1 -30 4 -30 4 0 8 9 8 20 0 12 7 20 18 20 14 0
15 2 2 10 -23 15 -27 12 -32 -20z"/>
<path d="M896 4835 c-3 -9 0 -15 9 -15 16 0 20 16 6 24 -5 3 -11 -1 -15 -9z"/>
<path d="M1105 4830 c3 -5 8 -10 11 -10 2 0 4 5 4 10 0 6 -5 10 -11 10 -5 0
-7 -4 -4 -10z"/>
<path d="M1650 4780 c0 -5 5 -10 10 -10 6 0 10 5 10 10 0 6 -4 10 -10 10 -5 0
-10 -4 -10 -10z"/>
<path d="M1174 4765 c15 -8 33 -15 40 -15 16 1 -36 29 -54 30 -8 0 -2 -7 14
-15z"/>
<path d="M1594 4768 c-5 -7 -3 -8 6 -3 7 4 16 2 21 -6 4 -7 11 -10 16 -6 4 5
1 12 -7 17 -20 13 -27 12 -36 -2z"/>
<path d="M1140 4756 c0 -2 7 -7 16 -10 8 -3 12 -2 9 4 -6 10 -25 14 -25 6z"/>
<path d="M1230 4740 c0 -5 -15 -14 -32 -19 -32 -9 -32 -9 -6 -10 15 -1 30 4
34 10 3 6 18 9 32 6 25 -5 25 -4 7 9 -22 16 -35 18 -35 4z"/>
<path d="M1123 4725 c0 -8 6 -15 13 -15 20 0 26 17 8 24 -21 8 -21 8 -21 -9z"/>
<path d="M1520 4730 c20 -13 33 -13 25 0 -3 6 -14 10 -23 10 -15 0 -15 -2 -2
-10z"/>
<path d="M1358 4723 c6 -2 18 -2 25 0 6 3 1 5 -13 5 -14 0 -19 -2 -12 -5z"/>
<path d="M1440 4715 c0 -8 2 -15 4 -15 2 0 6 7 10 15 3 8 1 15 -4 15 -6 0 -10
-7 -10 -15z"/>
<path d="M1478 4723 c7 -3 16 -2 19 1 4 3 -2 6 -13 5 -11 0 -14 -3 -6 -6z"/>
<path d="M1891 4694 c0 -11 3 -14 6 -6 3 7 2 16 -1 19 -3 4 -6 -2 -5 -13z"/>
<path d="M1935 4700 c3 -5 8 -10 11 -10 2 0 4 5 4 10 0 6 -5 10 -11 10 -5 0
-7 -4 -4 -10z"/>
<path d="M1890 4650 c0 -5 5 -10 11 -10 5 0 7 5 4 10 -3 6 -8 10 -11 10 -2 0
-4 -4 -4 -10z"/>
<path d="M1810 4578 c0 -19 2 -20 10 -8 13 19 13 30 0 30 -5 0 -10 -10 -10
-22z"/>
<path d="M1849 4593 c-1 -4 0 -19 1 -32 1 -14 -2 -21 -9 -17 -6 4 -11 2 -11
-3 0 -6 9 -11 19 -11 15 0 19 7 19 30 -1 27 -16 54 -19 33z"/>
<path d="M1872 4498 c2 -14 11 -24 23 -26 14 -2 16 0 7 6 -7 5 -10 16 -6 25 4
12 1 17 -11 17 -11 0 -15 -7 -13 -22z"/>
<path d="M1850 4460 c0 -5 5 -10 10 -10 6 0 10 5 10 10 0 6 -4 10 -10 10 -5 0
-10 -4 -10 -10z"/>
<path d="M1838 4388 c-8 -13 -17 -31 -21 -40 -3 -10 -13 -18 -22 -18 -8 0 -15
-5 -15 -11 0 -5 5 -7 10 -4 6 3 10 -3 10 -15 0 -25 -28 -38 -42 -19 -8 11 -9
10 -4 -4 3 -10 6 -20 6 -22 0 -6 56 11 75 22 15 9 17 15 8 21 -14 9 -1 75 19
100 7 8 7 12 0 12 -5 0 -16 -10 -24 -22z"/>
<path d="M1665 4210 c3 -5 8 -10 11 -10 2 0 4 5 4 10 0 6 -5 10 -11 10 -5 0
-7 -4 -4 -10z"/>
<path d="M1732 3938 c-7 -7 -12 -21 -12 -32 1 -20 1 -20 13 2 7 12 16 19 20
16 4 -4 7 0 7 9 0 20 -11 22 -28 5z"/>
<path d="M5853 3910 c0 -25 2 -35 4 -22 2 12 2 32 0 45 -2 12 -4 2 -4 -23z"/>
<path d="M1360 3740 c0 -6 7 -10 15 -10 8 0 15 2 15 4 0 2 -7 6 -15 10 -8 3
-15 1 -15 -4z"/>
<path d="M1532 3731 c-11 -7 -10 -10 3 -15 26 -10 35 -7 35 9 0 17 -18 19 -38
6z"/>
<path d="M4770 3569 c0 -5 5 -7 10 -4 6 3 10 8 10 11 0 2 -4 4 -10 4 -5 0 -10
-5 -10 -11z"/>
<path d="M5690 3404 c0 -25 -4 -43 -9 -40 -4 3 -6 -6 -3 -19 2 -14 8 -22 13
-19 5 3 8 8 5 12 -2 4 0 31 3 60 4 28 4 52 -1 52 -4 0 -8 -21 -8 -46z"/>
<path d="M4710 3235 c7 -8 17 -15 22 -15 5 0 3 7 -6 15 -8 8 -18 15 -22 15 -3
0 -1 -7 6 -15z"/>
<path d="M4750 3216 c0 -2 7 -9 15 -16 13 -11 14 -10 9 4 -5 14 -24 23 -24 12z"/>
<path d="M5095 3090 c-3 -5 -1 -10 4 -10 6 0 11 5 11 10 0 6 -2 10 -4 10 -3 0
-8 -4 -11 -10z"/>
<path d="M3549 2908 c-3 -94 22 -251 42 -264 5 -3 9 -13 9 -22 0 -22 78 -152
92 -152 7 0 7 4 -1 14 -6 7 -33 100 -60 207 -63 249 -80 293 -82 217z"/>
<path d="M5681 2914 c0 -11 3 -14 6 -6 3 7 2 16 -1 19 -3 4 -6 -2 -5 -13z"/>
<path d="M5616 2717 c3 -10 9 -15 12 -12 3 3 0 11 -7 18 -10 9 -11 8 -5 -6z"/>
<path d="M151 2654 c0 -11 3 -14 6 -6 3 7 2 16 -1 19 -3 4 -6 -2 -5 -13z"/>
<path d="M5586 2645 c-9 -26 -7 -32 5 -12 6 10 9 21 6 23 -2 3 -7 -2 -11 -11z"/>
<path d="M5555 2530 c3 -5 8 -10 11 -10 2 0 4 5 4 10 0 6 -5 10 -11 10 -5 0
-7 -4 -4 -10z"/>
<path d="M4992 2513 c-15 -30 -34 -110 -30 -128 1 -9 13 20 24 64 21 80 23 97
6 64z"/>
<path d="M5534 2459 c-3 -6 -1 -16 5 -22 8 -8 11 -5 11 11 0 24 -5 28 -16 11z"/>
<path d="M5680 2411 c0 -9 30 -24 36 -18 2 1 -6 8 -16 15 -11 7 -20 8 -20 3z"/>
<path d="M5540 2385 c0 -9 6 -12 15 -9 8 4 15 10 15 15 0 5 -7 9 -15 9 -8 0
-15 -7 -15 -15z"/>
<path d="M5537 2326 c-3 -8 1 -22 8 -33 13 -17 14 -16 15 9 0 30 -15 46 -23
24z"/>
<path d="M5600 2290 c0 -5 9 -14 19 -20 31 -16 37 -12 13 10 -23 22 -32 25
-32 10z"/>
<path d="M5467 2270 c3 -11 9 -20 14 -20 11 0 11 3 3 24 -9 23 -23 20 -17 -4z"/>
<path d="M3391 2251 c-20 -13 19 -31 85 -40 48 -7 54 -6 54 10 0 10 -9 23 -19
29 -24 12 -101 13 -120 1z"/>
<path d="M5451 2254 c0 -5 7 -25 14 -44 l13 -35 1 31 c1 17 -6 37 -14 44 -8 7
-15 9 -14 4z"/>
<path d="M5540 2231 c0 -6 11 -23 25 -38 l24 -28 -16 38 c-16 34 -33 49 -33
28z"/>
<path d="M5660 2230 c0 -5 5 -10 10 -10 6 0 10 5 10 10 0 6 -4 10 -10 10 -5 0
-10 -4 -10 -10z"/>
<path d="M6131 2185 c-13 -14 -18 -25 -11 -25 15 0 42 28 38 40 -2 5 -14 -2
-27 -15z"/>
<path d="M5598 2176 c-4 -19 -1 -22 13 -19 15 4 16 9 8 24 -13 25 -16 24 -21
-5z"/>
<path d="M6380 2180 c0 -5 5 -10 10 -10 6 0 10 5 10 10 0 6 -4 10 -10 10 -5 0
-10 -4 -10 -10z"/>
<path d="M5660 2170 c-13 -8 -12 -10 3 -10 9 0 17 5 17 10 0 12 -1 12 -20 0z"/>
<path d="M5902 2165 c-11 -12 -10 -15 3 -15 8 0 15 7 15 15 0 18 -2 18 -18 0z"/>
<path d="M6280 2170 c-13 -8 -12 -10 3 -10 9 0 17 5 17 10 0 12 -1 12 -20 0z"/>
<path d="M5461 2154 c0 -11 3 -14 6 -6 3 7 2 16 -1 19 -3 4 -6 -2 -5 -13z"/>
<path d="M6033 2163 c-7 -2 -13 -9 -13 -14 0 -13 22 -10 44 6 20 15 20 15 0
14 -10 0 -25 -3 -31 -6z"/>
<path d="M5783 2138 c-6 -14 -8 -31 -3 -38 6 -10 10 -7 15 13 10 37 1 54 -12
25z"/>
<path d="M5940 2114 c0 -59 24 -55 28 4 2 33 0 42 -12 42 -12 0 -16 -11 -16
-46z"/>
<path d="M5650 2141 c0 -19 27 -61 39 -61 10 0 11 3 2 14 -6 7 -9 20 -6 28 4
10 -1 17 -14 21 -12 3 -21 2 -21 -2z"/>
<path d="M6380 2135 c0 -8 5 -15 10 -15 6 0 10 7 10 15 0 8 -4 15 -10 15 -5 0
-10 -7 -10 -15z"/>
<path d="M6080 2121 c0 -12 29 -23 41 -15 18 10 9 24 -16 24 -14 0 -25 -4 -25
-9z"/>
<path d="M5725 2109 c-10 -15 1 -23 20 -15 9 3 13 10 10 16 -8 13 -22 13 -30
-1z"/>
<path d="M6251 2089 c-11 -19 -11 -21 4 -15 9 3 21 6 26 6 4 0 6 7 3 15 -8 21
-17 19 -33 -6z"/>
<path d="M6000 2079 c0 -11 5 -17 10 -14 6 3 10 13 10 21 0 8 -4 14 -10 14 -5
0 -10 -9 -10 -21z"/>
<path d="M6110 2036 c0 -47 14 -66 33 -47 8 8 8 11 -1 11 -7 0 -12 16 -12 40
0 22 -4 40 -10 40 -5 0 -10 -20 -10 -44z"/>
<path d="M6060 2045 c-12 -14 -12 -18 1 -25 10 -7 15 -5 17 5 6 28 -3 38 -18
20z"/>
<path d="M960 1855 c1 -26 2 -28 11 -12 8 14 8 22 0 30 -8 8 -11 3 -11 -18z"/>
<path d="M607 1829 c-21 -11 -42 -17 -47 -14 -5 3 -11 1 -14 -4 -13 -20 22
-16 74 10 30 15 48 28 40 28 -8 0 -32 -9 -53 -20z"/>
<path d="M660 1754 l-25 -14 28 0 c16 0 26 4 22 9 -3 5 3 12 12 14 12 3 13 5
3 5 -8 0 -26 -6 -40 -14z"/>
<path d="M585 1750 c-3 -5 1 -10 9 -10 9 0 16 5 16 10 0 6 -4 10 -9 10 -6 0
-13 -4 -16 -10z"/>
<path d="M317 1691 c5 -18 1 -21 -30 -21 -49 0 -55 -16 -11 -30 26 -9 39 -9
47 -1 6 6 27 12 47 13 l35 1 -33 4 c-18 2 -30 8 -27 12 2 5 -4 16 -15 26 -18
16 -18 16 -13 -4z"/>
<path d="M215 1690 c-3 -5 -19 -10 -36 -10 -16 0 -29 -5 -29 -11 0 -5 4 -8 9
-4 5 3 12 1 16 -5 10 -16 35 -12 42 8 4 9 11 20 17 24 8 5 7 8 -1 8 -6 0 -15
-4 -18 -10z"/>
<path d="M151 1641 c-7 -5 -9 -11 -4 -14 5 -3 15 -2 22 2 7 5 9 11 4 14 -5 3
-15 2 -22 -2z"/>
<path d="M222 1605 c-21 -11 -22 -13 -4 -17 12 -3 23 2 31 13 13 22 6 23 -27
4z"/>
<path d="M42 1564 c-14 -16 -5 -18 17 -5 7 5 9 11 5 14 -5 3 -15 -1 -22 -9z"/>
<path d="M4073 1113 c-20 -7 -15 -22 6 -20 11 0 17 6 14 14 -3 7 -6 13 -7 12
0 0 -7 -3 -13 -6z"/>
<path d="M3965 880 c3 -5 12 -7 20 -3 21 7 19 13 -6 13 -11 0 -18 -4 -14 -10z"/>
<path d="M3800 823 c-41 -8 -79 -18 -84 -23 -6 -6 2 -6 20 -1 17 5 62 12 101
16 38 4 76 11 84 16 21 13 -32 10 -121 -8z"/>
<path d="M2662 775 c0 -16 2 -22 5 -12 2 9 2 23 0 30 -3 6 -5 -1 -5 -18z"/>
<path d="M3629 753 c-13 -16 -12 -17 4 -4 16 13 21 21 13 21 -2 0 -10 -8 -17
-17z"/>
<path d="M3560 680 c-6 -11 -8 -20 -6 -20 3 0 10 9 16 20 6 11 8 20 6 20 -3 0
-10 -9 -16 -20z"/>
<path d="M3709 663 l-34 -38 38 34 c20 19 37 36 37 38 0 8 -8 0 -41 -34z"/>
<path d="M3409 154 c-7 -8 -25 -41 -40 -72 l-28 -57 -2 60 c-2 48 -3 52 -6 20
-5 -44 4 -105 15 -105 5 0 14 17 21 38 8 20 24 58 36 85 25 50 25 57 4 31z"/>
<path d="M3507 28 c-4 -12 -4 -24 -1 -27 6 -7 24 20 24 37 0 21 -17 13 -23
-10z"/>
<path d="M5830 10 c0 -5 5 -10 10 -10 6 0 10 5 10 10 0 6 -4 10 -10 10 -5 0
-10 -4 -10 -10z"/>
</g>
</svg>
