<svg width="208" height="47" viewBox="0 0 208 47" fill="none" xmlns="http://www.w3.org/2000/svg">
<rect width="208" height="47" rx="2" fill="#FF6464"/>
<path d="M46.0293 30L46.0488 27.9785H49.0566C49.929 27.9785 50.6582 27.7897 51.2441 27.4121C51.8301 27.0345 52.2728 26.4941 52.5723 25.791C52.8717 25.0814 53.0215 24.235 53.0215 23.252V22.5098C53.0215 21.5007 52.8717 20.6478 52.5723 19.9512C52.2793 19.2546 51.8431 18.724 51.2637 18.3594C50.6842 17.9948 49.9779 17.8125 49.1445 17.8125H45.9707V15.7812H49.1445C50.4141 15.7812 51.5273 16.0612 52.4844 16.6211C53.4479 17.181 54.1999 17.9655 54.7402 18.9746C55.2806 19.9837 55.5508 21.1686 55.5508 22.5293V23.252C55.5508 24.6191 55.2806 25.8073 54.7402 26.8164C54.1999 27.8255 53.4414 28.61 52.4648 29.1699C51.4948 29.7233 50.3587 30 49.0566 30H46.0293ZM47.4355 30H44.916V15.7812H47.4355V30ZM57.3086 24.6191C57.3086 23.5905 57.5039 22.6725 57.8945 21.8652C58.2852 21.0579 58.8451 20.4199 59.5742 19.9512C60.3099 19.4759 61.1921 19.2383 62.2207 19.2383C63.2624 19.2383 64.151 19.4759 64.8867 19.9512C65.6224 20.4199 66.1823 21.0579 66.5664 21.8652C66.957 22.6725 67.1523 23.5905 67.1523 24.6191V24.8242C67.1523 25.8464 66.957 26.7643 66.5664 27.5781C66.1823 28.3854 65.6224 29.0234 64.8867 29.4922C64.1576 29.9609 63.2754 30.1953 62.2402 30.1953C61.2051 30.1953 60.3197 29.9609 59.584 29.4922C58.8483 29.0234 58.2852 28.3854 57.8945 27.5781C57.5039 26.7643 57.3086 25.8464 57.3086 24.8242V24.6191ZM59.7305 24.8242C59.7305 25.4492 59.8184 26.0221 59.9941 26.543C60.1699 27.0573 60.4401 27.4707 60.8047 27.7832C61.1758 28.0957 61.6543 28.252 62.2402 28.252C62.8197 28.252 63.2917 28.0957 63.6562 27.7832C64.0273 27.4707 64.2975 27.0573 64.4668 26.543C64.6426 26.0221 64.7305 25.4492 64.7305 24.8242V24.6191C64.7305 24.0007 64.6426 23.431 64.4668 22.9102C64.2975 22.3893 64.0273 21.9727 63.6562 21.6602C63.2852 21.3411 62.8066 21.1816 62.2207 21.1816C61.6413 21.1816 61.166 21.3411 60.7949 21.6602C60.4303 21.9727 60.1602 22.3893 59.9844 22.9102C59.8151 23.431 59.7305 24.0007 59.7305 24.6191V24.8242ZM74.418 19.4336H75.9609L75.5508 22.0117L73.0996 30H71.7324L71.9863 27.5879L74.418 19.4336ZM72.5137 27.6172L72.6406 30H71.1074L68.2559 19.4336H70.6191L72.5137 27.6172ZM80.0234 19.4336H82.377L79.5352 30H78.002L78.1973 27.5195L80.0234 19.4336ZM78.627 27.5L78.9102 30H77.5332L75.0527 22.002L74.6523 19.4336H76.2246L78.627 27.5ZM86.3613 30H83.9395V19.4336H86.2148L86.3613 21.6895V30ZM85.1504 24.3457C85.1569 23.3236 85.3359 22.4316 85.6875 21.6699C86.0391 20.9017 86.5306 20.306 87.1621 19.8828C87.7936 19.4531 88.5293 19.2383 89.3691 19.2383C90.0527 19.2383 90.6452 19.3685 91.1465 19.6289C91.6478 19.8828 92.0384 20.2995 92.3184 20.8789C92.5983 21.4518 92.7383 22.2233 92.7383 23.1934V30H90.3066V23.1738C90.3066 22.6855 90.235 22.2982 90.0918 22.0117C89.9551 21.7253 89.7467 21.5234 89.4668 21.4062C89.1934 21.2826 88.8581 21.2207 88.4609 21.2207C88.0573 21.2207 87.6992 21.3021 87.3867 21.4648C87.0807 21.6211 86.8171 21.8424 86.5957 22.1289C86.3809 22.4154 86.2148 22.7474 86.0977 23.125C85.987 23.5026 85.9316 23.9062 85.9316 24.3359L85.1504 24.3457ZM97.6992 30H95.2773V15H97.6992V30ZM99.8086 24.6191C99.8086 23.5905 100.004 22.6725 100.395 21.8652C100.785 21.0579 101.345 20.4199 102.074 19.9512C102.81 19.4759 103.692 19.2383 104.721 19.2383C105.762 19.2383 106.651 19.4759 107.387 19.9512C108.122 20.4199 108.682 21.0579 109.066 21.8652C109.457 22.6725 109.652 23.5905 109.652 24.6191V24.8242C109.652 25.8464 109.457 26.7643 109.066 27.5781C108.682 28.3854 108.122 29.0234 107.387 29.4922C106.658 29.9609 105.775 30.1953 104.74 30.1953C103.705 30.1953 102.82 29.9609 102.084 29.4922C101.348 29.0234 100.785 28.3854 100.395 27.5781C100.004 26.7643 99.8086 25.8464 99.8086 24.8242V24.6191ZM102.23 24.8242C102.23 25.4492 102.318 26.0221 102.494 26.543C102.67 27.0573 102.94 27.4707 103.305 27.7832C103.676 28.0957 104.154 28.252 104.74 28.252C105.32 28.252 105.792 28.0957 106.156 27.7832C106.527 27.4707 106.798 27.0573 106.967 26.543C107.143 26.0221 107.23 25.4492 107.23 24.8242V24.6191C107.23 24.0007 107.143 23.431 106.967 22.9102C106.798 22.3893 106.527 21.9727 106.156 21.6602C105.785 21.3411 105.307 21.1816 104.721 21.1816C104.141 21.1816 103.666 21.3411 103.295 21.6602C102.93 21.9727 102.66 22.3893 102.484 22.9102C102.315 23.431 102.23 24.0007 102.23 24.6191V24.8242ZM117.553 22.8613C117.553 22.3145 117.4 21.8783 117.094 21.5527C116.794 21.2272 116.339 21.0645 115.727 21.0645C115.362 21.0645 115.043 21.1296 114.77 21.2598C114.496 21.3835 114.285 21.5527 114.135 21.7676C113.985 21.9824 113.91 22.2266 113.91 22.5H111.488C111.488 21.9336 111.667 21.403 112.025 20.9082C112.383 20.4069 112.888 20.0033 113.539 19.6973C114.197 19.3913 114.971 19.2383 115.863 19.2383C116.658 19.2383 117.364 19.3717 117.982 19.6387C118.601 19.9056 119.086 20.3092 119.438 20.8496C119.796 21.39 119.975 22.0671 119.975 22.8809V27.5391C119.975 28.0339 120.01 28.4701 120.082 28.8477C120.154 29.2253 120.255 29.554 120.385 29.834V30H117.904C117.794 29.7461 117.706 29.4173 117.641 29.0137C117.582 28.61 117.553 28.2161 117.553 27.832V22.8613ZM117.924 25.0586H116.264C115.404 25.0586 114.757 25.2181 114.32 25.5371C113.891 25.8496 113.676 26.276 113.676 26.8164C113.676 27.2331 113.819 27.5814 114.105 27.8613C114.392 28.1348 114.796 28.2715 115.316 28.2715C115.792 28.2715 116.205 28.1771 116.557 27.9883C116.915 27.793 117.195 27.5553 117.396 27.2754C117.598 26.9889 117.702 26.722 117.709 26.4746L118.48 27.5586C118.402 27.8255 118.269 28.112 118.08 28.418C117.898 28.7174 117.654 29.0039 117.348 29.2773C117.048 29.5443 116.69 29.7656 116.273 29.9414C115.863 30.1107 115.385 30.1953 114.838 30.1953C114.148 30.1953 113.533 30.0586 112.992 29.7852C112.452 29.5117 112.025 29.1374 111.713 28.6621C111.407 28.1803 111.254 27.64 111.254 27.041C111.254 25.9212 111.674 25.0618 112.514 24.4629C113.354 23.8639 114.545 23.5645 116.088 23.5645H117.904L117.924 25.0586ZM128.842 15H131.264V30H129.066L128.842 27.7832V15ZM121.986 24.6289C121.986 23.5612 122.152 22.6237 122.484 21.8164C122.823 21.0026 123.301 20.3711 123.92 19.9219C124.538 19.4661 125.281 19.2383 126.146 19.2383C126.999 19.2383 127.712 19.4596 128.285 19.9023C128.858 20.3451 129.307 20.9603 129.633 21.748C129.965 22.5293 130.186 23.4375 130.297 24.4727V25.0391C130.186 26.0417 129.968 26.9303 129.643 27.7051C129.317 28.4798 128.865 29.0885 128.285 29.5312C127.712 29.974 126.993 30.1953 126.127 30.1953C125.274 30.1953 124.538 29.9642 123.92 29.502C123.301 29.0332 122.823 28.3952 122.484 27.5879C122.152 26.7806 121.986 25.8626 121.986 24.834V24.6289ZM124.408 24.834C124.408 25.459 124.486 26.0286 124.643 26.543C124.799 27.0508 125.046 27.4577 125.385 27.7637C125.73 28.0632 126.182 28.2129 126.742 28.2129C127.27 28.2129 127.702 28.099 128.041 27.8711C128.386 27.6367 128.653 27.321 128.842 26.9238C129.037 26.5267 129.171 26.0807 129.242 25.5859V23.9355C129.197 23.5449 129.115 23.1836 128.998 22.8516C128.881 22.5195 128.721 22.2331 128.52 21.9922C128.324 21.7513 128.08 21.5625 127.787 21.4258C127.494 21.2891 127.152 21.2207 126.762 21.2207C126.202 21.2207 125.746 21.3737 125.395 21.6797C125.049 21.9792 124.799 22.3893 124.643 22.9102C124.486 23.4245 124.408 23.9974 124.408 24.6289V24.834ZM149.809 25.3516C149.73 26.2826 149.467 27.1159 149.018 27.8516C148.575 28.5807 147.953 29.1536 147.152 29.5703C146.352 29.987 145.372 30.1953 144.213 30.1953C143.041 30.1953 142.022 29.9219 141.156 29.375C140.297 28.8216 139.633 28.0404 139.164 27.0312C138.702 26.0221 138.471 24.8307 138.471 23.457V22.334C138.471 20.9538 138.708 19.7624 139.184 18.7598C139.659 17.7507 140.333 16.9694 141.205 16.416C142.084 15.8626 143.119 15.5859 144.311 15.5859C145.45 15.5859 146.41 15.7975 147.191 16.2207C147.979 16.6374 148.588 17.2168 149.018 17.959C149.454 18.6947 149.717 19.541 149.809 20.498H147.299C147.201 19.5931 146.931 18.89 146.488 18.3887C146.052 17.8874 145.326 17.6367 144.311 17.6367C143.575 17.6367 142.963 17.819 142.475 18.1836C141.993 18.5417 141.628 19.069 141.381 19.7656C141.133 20.4557 141.01 21.3053 141.01 22.3145V23.457C141.01 24.4206 141.12 25.2539 141.342 25.957C141.563 26.6536 141.908 27.194 142.377 27.5781C142.846 27.9557 143.458 28.1445 144.213 28.1445C144.903 28.1445 145.46 28.0371 145.883 27.8223C146.312 27.6074 146.638 27.2949 146.859 26.8848C147.081 26.4681 147.224 25.957 147.289 25.3516H149.809ZM160.58 15.7812H163.363L158.285 30H156.4L156.879 27.3145L160.58 15.7812ZM157.162 27.3145L157.67 30H155.785L150.717 15.7812H153.49L157.162 27.3145Z" fill="white"/>
</svg>
